/* XPM */
static char *result[] = {
/* columns rows colors chars-per-pixel */
"16 16 9 1 ",
"  c #222222",
". c #483B3A",
"X c #775C55",
"o c #8F4029",
"O c #C56025",
"+ c #5956BD",
"@ c #5698CC",
"# c #B6CBCF",
"$ c #FDF7ED",
/* pixels */
"   .    ... .   ",
" ..............X",
"...............X",
"....        ...X",
" ... ooOOOO ...X",
".... $####$ ...X",
" .... $##$ .....",
" .... $++$ ....X",
" ... $+$++$ ....",
"... $+$++++@ ..X",
"... $@+$+@+@ ..X",
" .. $++@@++@ ...",
" ... $@@@@@ ....",
" ....      ....X",
" ..............X",
"XXX..X.XXXX.XXXX"
};
