/* XPM */
static char *result[] = {
/* columns rows colors chars-per-pixel */
"64 64 110 2 ",
"   c #291916",
".  c #2D1A18",
"X  c #2C1B18",
"o  c #2D1B18",
"O  c #2D1B19",
"+  c #2F1E1B",
"@  c #2F1F1B",
"#  c #301C18",
"$  c #36211C",
"%  c #36201D",
"&  c #36211D",
"*  c #37211D",
"=  c #3A2420",
"-  c #3B2420",
";  c #3B2520",
":  c #3B2421",
">  c #3B2924",
",  c #3A2925",
"<  c #3B2925",
"1  c #40221D",
"2  c #402622",
"3  c #412622",
"4  c #412722",
"5  c #412623",
"6  c #482620",
"7  c #492620",
"8  c #482621",
"9  c #4A2821",
"0  c #4C2B24",
"q  c #4C2A25",
"w  c #4C2B25",
"e  c #4D2B25",
"r  c #4F2C25",
"t  c #422F2B",
"y  c #432F2B",
"u  c #462E2A",
"i  c #472E2A",
"p  c #462F2A",
"a  c #462E2B",
"s  c #4E2E28",
"d  c #4E2F28",
"f  c #4E2E29",
"g  c #522E26",
"h  c #532E26",
"j  c #522F26",
"k  c #522E27",
"l  c #532E27",
"z  c #522F27",
"x  c #48312C",
"c  c #48302D",
"v  c #48312D",
"b  c #49312D",
"n  c #52322D",
"m  c #53322D",
"M  c #523630",
"N  c #533630",
"B  c #533631",
"V  c #5F3831",
"C  c #5F3A34",
"Z  c #5E3B34",
"A  c #5F3B34",
"S  c #5F3B35",
"D  c #613C34",
"F  c #603C35",
"G  c #613C35",
"H  c #613D35",
"J  c #653C36",
"K  c #643D36",
"L  c #653D36",
"P  c #653D37",
"I  c #663E36",
"U  c #673E36",
"Y  c #673F36",
"T  c #663E37",
"R  c #673E37",
"E  c #663F37",
"W  c #673F37",
"Q  c #6A443E",
"!  c #6A453E",
"~  c #6B453E",
"^  c #6A453F",
"/  c #72463E",
"(  c #72473E",
")  c #73473E",
"_  c #72463F",
"`  c #73463F",
"'  c #72473F",
"]  c #73473F",
"[  c #614A44",
"{  c #614A45",
"}  c #614B45",
"|  c #71524E",
" . c #70534E",
".. c #71534E",
"X. c #71534F",
"o. c #79504A",
"O. c #79514A",
"+. c #79514B",
"@. c #745B55",
"#. c #765B56",
"$. c #765B57",
"%. c #7A5C57",
"&. c #7A5D57",
"*. c #7B5D57",
"=. c #876660",
"-. c #876760",
";. c #876661",
":. c #8E716A",
">. c #8E706B",
",. c #8E716B",
/* pixels */
",.=.O.' ' ' ' ' ' ' ] ' ' ' ' ' ' ' ' ' ( ' ' ' ' ' ' A - - A ' ' ' ' ' ' ' ' ' ' _ ' ' ' ' ' ' ' ' ' ' ' ' ' ' ' ' ' ' ' A -   ",
",.=.O.' ' ' ' _ ' ] ' ' ' ' ' ' ' ' ' ] ' ' ' ' ' ' ' G 3 3 G ' ' ' ' ' ' ' ' ] ' ' ' ' ' ' ' ' ' ' ' _ ' ' ' ' ' ' ] ' ' G 3 # ",
",.=.O.' ' _ ' ' ' ' ' ' ( ' ' ] ' ' ' ' ( ' ' ' ' ' ' L w 0 L ' ' ' ' ' ' ' ' ' ' ] ' ' ] ' ' ' ' ' ' ' ' ' ' ' ' ' ' ' ' L w 1 ",
",.=.O.' ' ' ' ' ' ' ' ' ' ' ' ' ' ' ' ] ' ' ' ' ' ' ' R k k R ' ' ' ' ' ' ' ' ' ' _ ' ' ' ' ' ' ' ' ' ' ' / ' ' ' ' ' ' ' L w 1 ",
",.=.O.' ' ' ' ' ' ' _ ' ' ' ' ' ' ' ' ' ' ' ' ' ( ' ' R k k W ( ' ' ' ' ' ' ' ' ' _ ' ] _ ' _ ' ' ' ' ' ' ' ' ' ' ' ] _ ' G 3 # ",
"@...! R R R R R R R R L G A A A A G L R R R R R U T R V r r V R R R R T R R R R R R R L D A A A A G L R R R R R R R R L G n &   ",
"t u s k k k k k k k k w 4 - - - - 3 w k k k k k k k k r 9 9 r k k k k z k k k l k k k w 2 - - - - 3 0 k k k k k k k k w 3 $ o   ",
"- 3 w k k k k k k k k w 3 & . + < u d k l k k k k k k k k k k k k k k k k k k k k k z q 3 & o + < p s k z k k k g k k w 3 - - - ",
"A G L R R R R R R T R L G n & > {  .! R R R R W R R R R R U R R R R R R R R U R R R R L G m & < { | ! R R R R R R R R L F A Z A ",
"' ' ' ' ' ' ' ' ' ' ' ] ' G 3 v #.-.o.' ' ' ' ' ] ' ' ' _ ' ' ' ' ' ' ' ' ' ' ' ' ' ' ' ' G 3 c #.=.O.' ' _ ' ( ' ' ' ' ( ' ' ' ",
"' ' ' ' ] ' ' ' ' ' ' ' ' L w N &.=.O.' ] _ ( ' ' ' ' ' ' ' ' ' ' ' ' ' ' ' ' _ ' ' ' ' ' L w N &.=.O.' ' ' ' ' ' ' ' ' ' ' ' ' ",
"' ' ' ' ( ' ' ' ' ' ' ' ' L w N &.=.O.' ' ' ' ' ( ' ' ' ' ' ' ' ' ' ' ' ' ' ' ' ' ' ' ' ' L w B &.=.O.' ' _ ' ' ' ' ( ' ' ' ' ' ",
"' ' ' ' ] ' ' ' ' ' ' ' ' G 3 v #.=.O.' ' ' ' ' ' ( ' ' ' ' ' ' ' ( ' ' ' ' ] ' ' ' ' ' ' G 3 v #.=.O.' ' ' ' ' ' ' ' ' ' ' ' ' ",
"A G L R R R R R R R R L H n & < { ..! R R R R R W L G A A A S G L R R R T R R R R R R L G n & < { ..Q R R R W R R R R L G C A A ",
"- 3 w k k k k k k k k w 3 % o + , u s k k k k k k w 3 - = = - 3 w k k k k h k k z k k w 4 & o + < u s k g k k k l k k w 3 - - ; ",
"y u s k k k k k k k k w 3 - - - - 3 w k g k k k k w 3 & o + < u s k z k k l k k k k k w 3 - - - - 3 w k k g k k k k k w 3 & o   ",
"@...! R R R R R R R R L G A A A A G P W R R R R R L G n & < [ ..! R R W R U W R R R R L G A A A A G L R R R R R R W R L G n &   ",
":.=.O.' ' ' ' ' ' ' ' ' ' ' ' ' ' ' ' ' ' ' ' ' ( ' ' H 3 b #.=.O.' _ ] _ ' ' ' ' ' ' ' ] ' ' ' ' ' ' ' ' ' ' ' ] ] ' ' ' G 3 # ",
",.=.O.' ' ( ' ' ' ' ' ' ' ' ' ( ' ' ' ' ' ' ' ' ' ' ' L w N &.=.O.' _ ' ' ( ' _ ' ( ' ' ' ] ' ] ' ) ' ' ' ' ' ' ' ( ' ' ' P w 1 ",
",.=.O.' ' ' ' ' ] ' ' ' ' ' ' ' ' ' ' ] ' ' ' _ ' ' ' L w M *.-.O.' ' ' ' ' _ ' ' ' ' ] ' ' ' _ ' ' ] _ ' ' ' ' ' _ ' ' ' L w 1 ",
",.=.O.' ' ' _ ' ' ' ' ' ' ' ] ' ' ' ' ' ' ' ' ' ( ' ' G 3 v #.=.o.' ' ' ' ' ' ' ' ] ' ' ' ' ' ' ( ' ' ' ' ( ' ] ' ' ( ' ] G 3 # ",
"@...! R R R R R R R R L G C A A A G L R R R R R R L G n & < { ..! R R R R R T R R R T L G A A A A G L R R R R R R R R L G n &   ",
"t u s k k k k k k z k w 3 = - - - 2 w k k k k k k w 3 & o @ < a s k k k k k k k k k k w 5 - - - - 3 w k k k k k k k k w 3 & o   ",
"- 3 w g k k k k k k k w 3 & o + < a s k k k k k k w 3 - - - - 3 w k k g k k k k g k z 0 2 & X + < u s k k k k k k k k w 3 - - - ",
"A G L R U R R R W R R L G n & < { X.^ R R R R R R L F A A A A G L R R R R R R R R R R L G n & < { | ~ R R R R R T R R L G A A Z ",
"' ] ' _ _ ( ' ' ' ' ' ' ' G 3 v #.=.O.( ' ' ' ' ' ' ' ' _ ' ( ' ' ' ' ' ' ' ' ' ' ' ' _ ' G 3 v #.=.O.' ' ' ] ' ' ' ' ' ' ( ' ' ",
"' ' ' ' ' ' ' ' ' ' ' ' ( L w N &.=.o.' ' ' ' ' ] ' ' ' ' ' ' ' ' ' ' ' ' ' ' ' ' ' ' ' ' L w N &.;.O.' ' ' ' ' ' ' ' ' ' ' ' ' ",
"' ' ' ' ' ' ' ' _ ' ' ' ' L w N &.=.O.' ' ' ' ' ' ( ' ' ' ' ' ' ' ' ' ' ' ' ' ' ' ' ' ' ' K w N &.=.O.' _ ' ' ' ' ' ' ' ' ' ' ' ",
"' ' ' ' ' ' ' ' ' ' ' ' ' G 2 v #.=.O.' ' ' ' ' ' ' _ ' ' ' ' ' ' ] ' ' ' ' ' ' ' ' ' ' ' G 3 b #.=.O.' ' ' ' ' ' ] ( ' ] ' ' ' ",
"A G L R R R R W R R U L G n & < } X.! T R R R R R P G A A S A G L R R R R R R R R U R L G n & < { ..! R R R R R R R R L G A A A ",
"- 3 w k k k k k k k k w 2 & o + > u f k k k k k k w 3 - - - - 5 w k z k z k k k l j k w 3 & o + , u s k k k k k g k k w 3 - - - ",
"t i s k z k k k k k k w 3 - - - - 4 w k k g k k k w 3 & o + < u s z k k k k k k z k k 0 3 - - - - 3 w k k k k k k k k w 3 & o   ",
"@...! R R U R R R R R L G A A A A G L R R R R R R L G n & < { ..! R R R T R R U R R R L G A A A A G K T R R R R R T R L G n &   ",
",.=.O.' ' ' ' _ ' ' ] ' ' ' ' ' ' ' ' ' ' ' ( ' ' ' ' G 3 x $.=.O.' ' ' ' ' ' ' ' ' ' ' ' ' ' ' ' ' ' ] ' ' ' ' ' ' ' ' ' G 3 # ",
",.=.O.' ' ' ' ' ' ' ' ' ' ' ' _ ' ' ' ' ' ' _ ' ' ' ' L w M &.=.O.] ' ' ' ' ' ' ' ' ' ' ( ' ' ' ' ' ' ' ' ' ] ' ' ' ' ' ' L w 1 ",
",.=.O.' _ ' _ ' ] ] _ ' ' ' ' ' ' ' ' ' ' ' ' ' ' ] ' L w N &.=.O.' ' _ ' ' ' _ ' ' ( ' ' ( ' ' ' ' ' ' ' ] ' ' ' _ ' ' ( K w 1 ",
",.=.O.' ] ' ' _ ] ' ' ' ' ' ( _ ' ' ' ' ' ' ' ' ' ' ' G 3 v #.=.O.' ' ' ' _ ' ' ' ' ' ' ' ' ' ' ' ' ' ' ' ' ' ' ' ' ' ' ' G 2 # ",
"@...! R W R R R W R R P G A Z A S G L R R R R R R L D n & < } ..! R T W R R R R R R R J G A A A C G L R R R R R R R R L G m &   ",
"t a s k l k k k k k k w 3 - - - ; 3 w k k k k k k w 3 & o + < u s k k k k k k k k k k w 5 - - : - 3 w k k k z k k k g e 3 % X   ",
"- 3 w k k k k k z k k w 3 & O + < u f g k k z g k w 4 - - - - 5 w k k g g k k g k k k w 3 & o + < a s k g k k k k k k w 3 - - - ",
"A G L R R R R R R R R L H n & < { ..^ R R R R R R K G A A A A G P R R R R R R R R R R L D n & < { | Q R R R R R R R R L G A A A ",
"' ( ' ' ' ' ' ' ' ( ' ' ' G 3 x #.=.+.' _ ' ' ] _ ' ' ' ' ' ( ' ' _ ' ' ' ' ' ' ' ' ' ( ' G 4 v #.=.O.] ] ' ' ' ' ( ( ' ' ' ' ' ",
"' ' ' ' ' ' ( _ ' ' ' ' ( L w N &.=.O.' ' ' ' ' ' ' ' ( ' ] ( ' ' ' ' ' ' ' ' ' ' ' ' ' ' L w N %.=.O.' ' ' ' ' ' ' ' ' ' ' ' ' ",
"' ' ' ' ' ' ' _ ' ' ' ' ' L e N &.=.O.' ' ' ' ' ' ' ' ' ' ' ' ' ' ' ' ' ' ' ' ' ' ' ' ' ' L w N &.=.O.' ' ' ' ' ' ' ' ' ' ' ' ' ",
"' ' ' ' ' ' ' ' ' ' ' ' _ D 3 v #.=.O.] ' ' ' ' ' ( ( ' _ ' ' ' ' ' ' ' ' ' ' ' ' ' ' ' ' G 4 x #.=.O.' ' ' ' ' ' ' ' _ ' ' ( ' ",
"A G J R R R R R R W R L G n & < { ..! R R R W R R L G A A A A G L R R T R W R R R R R L G n % < { ..~ R R R R R R R R L G A A A ",
"- 3 w k k k k k l k k w 3 & O + < u s k k l k k k w 3 - - - - 3 w k k g k k g k l k k w 3 & o + < u s k k k l k k k k w 3 : - - ",
"t u s k k k k k k k k w 3 - - - - 3 q k z k g k z w 3 & o + > u s k k k k k k k k l k w 3 - - - : 3 w k k k k k k k k w 3 & o   ",
"@...^ R R R R R R R R L G A A A A G L R R R R R R J G n * < { ..! R R U T R R R R R R L G A A A C G L R R R R R R R R K G n &   ",
",.=.O.' ' ' ' ' ' ' ' ' ' ' ' ' ' ' ' ' ' ' ' ' ' ' ' G 3 v #.=.O.' ' ] ] _ ' _ ] ' ' ' ' ' ' ( ' ] ' ' ' ] ' ' ' ' _ ' ( G 3 # ",
",.=.O.' ( ' ' ( ' ( ' ) ' ' ' ' ' ' ' ' ' ' ' ' ' _ ' L w N &.=.O.' ' ' ] ' ' ' ' ' ' ' ' ' ' ' ' ' ' ' ' ] ' ' ' ' ' ' ' L w 1 ",
">.=.O.' ' ' ' ' ' ' ' ' ' ' ' ' ' ' ' ' ' ' ' ' ' ' ' L w N &.=.O.' ' ' ' ' ' ( ' ' ' _ ' ' ' ] ' ( ' ' ' ' ' ' _ ' ' ' ' L w 1 ",
",.=.O.' ' ' ' ' ' ' ' _ ' ' ' ' ( ' ' ' ' ' ] ] ' ' ' G 3 v #.-.O.' ' ' ' ' ' _ ' ' ] ] ' ' ' ' ] ' ' ' ' ' ' ' ' _ ' ' ] F 3 # ",
"@...! R R R I R R R R L G A C Z A G L R R R R R T L G n & < [ ..! R R U R R R Y R R R L G A A A A D L R R R R R R R R L G n &   ",
"t u s k k k k k k k k w 3 - ; - - 3 w k k k k l k w 3 & o + < u s k k k k k k k k k k w 3 - - - - 3 w k k k k l k g k w 3 & o   ",
"- 3 w k k k k k k k k e 3 & o + < u s g g k k k k w 3 - - - - 3 w k k k k k k k k k z w 3 & X o % 2 w k k k k l g k g w 3 - - - ",
"A G L R R R R R R R R L G n & < { ..! R R R R R R L G A A C A G L R R W R U R R R R R L D n & & n G L R W R R R R U R L G C A A ",
"' ' ' _ ' ' ' ' _ ' ' ' ' G 3 v #.=.O._ ' ' ' ' ' ' _ ' ' ' ' ] ] ' ' ' ' ' ' ' ' ' ' ' ' G 3 3 G ' ' _ ] ' ' ] _ ' ' ' ] ' ' ' ",
"' ' ' ' ' ' ' ' ( ' ( ` ' L w N &.=.O.( ' / ' _ _ ' ' ' ( ' ' ' ' ( ' ( ' ' ( ] ' ' ' ' ' L w 0 L ' ( ' ' ' ' ' ' ' ' ' ' ' ' ' ",
"' ' ( ' ' ' ' ' ' ' ' ' ' L w N &.=.O.' ' ' ' ' ' ' ' ] ' ' ' ' ' ' ' _ ' ' ' ' ' ' ' ' ' L w w L ' ' ' ' ' ' ' ' ' ' ' ' ] ' ' ",
"' ' ' ' ' ' ' ' ' ' ' ' ' G 3 v #.=.+.' ' ' ] ' ' ' ' ( _ ' ' ' ' _ ' ' ' ' ' ' ' ' ' ' ' G 3 3 G ' ' ' ' ' ' ' ' ' ' ' ' ' ' ' ",
"A G L R R E R R R R R P F n * < } ..! U R R R R R L G A A A A G L R R R R R R R R R R L G n & & n H L R W R R R R R R P G A C A ",
"- 3 w z k l k k k g k w 3 & . + < u s k k k k k k w 3 - - - - 3 w k k k k k k k k k k 0 3 & o o & 3 w k k k k k k k k w 3 - - - ",
"  # 1 6 6 7 6 7 6 6 6 1 #         # 1 6 6 6 8 6 6 1 #         # 1 6 6 6 6 6 6 6 6 6 6 1 #         # 1 6 6 6 6 6 6 6 6 1 #       "
};
