/* XPM */
static char *result[] = {
/* columns rows colors chars-per-pixel */
"29 28 15 1 ",
"  c black",
". c #2E2C2C",
"X c #5B5050",
"o c #766E6E",
"O c #AC3232",
"+ c #A47331",
"@ c #BF724D",
"# c #897F7F",
"$ c #B6833D",
"% c #D1994D",
"& c #E8AD5D",
"* c #989898",
"= c #EEC39A",
"- c white",
"; c None",
/* pixels */
";;;;;;;;;;;;;;;;;;;;;;;;;;;;;",
";;;;      ;;;;;;;;;;;;;;;;;;;",
";;;;      ;;;;;;;;;;;;;;;;;;;",
";;  &&&&  ;;  XXXX  ;;;;;;;;;",
";;  &&&&  ;;  XXXX  ;;;;;;;;;",
";;;;  OO&&  ******##  ;;;;;;;",
";;;;  OO&&  ******##  ;;;;;;;",
";;;;  %%  XX        **  ;;;;;",
";;;;  %%  XX        **  ;;;;;",
";;;;  %%    --====--  oo  ;;;",
";;;;  %%    --====--  oo  ;;;",
";;;;      ==  ====  ==oo  ;;;",
";;;;      ==  ====  ==oo  ;;;",
";;;;  ==  --==----==--    ;;;",
";;;;  ==  --==----==--    ;;;",
";;;;        --====--  ##  ;;;",
";;;;        --====--  ##  ;;;",
";;;;  ++    --------  ##  ;;;",
";;;;  ++    --------  ##  ;;;",
";;;;  $$  XX  ----  ==##  ;;;",
";;;;  $$  XX  ----  ==##  ;;;",
";;;;  $$  XX********XX  XX  ;",
";;;;  $$  XX********XX  XX  ;",
";;;;;;    @@@@    ....    ;;;",
";;;;;;    @@@@    ....    ;;;",
";;;;;;;;;;    ..XX;;;;;;;;;;;",
";;;;;;;;;;    ..XX;;;;;;;;;;;",
";;;;;;;;;;;;;;;;;;;;;;;;;;;;;"
};
