/* XPM */
static char *result[] = {
/* columns rows colors chars-per-pixel */
"64 64 213 2 ",
"   c #2B1E2F",
".  c #391C2B",
"X  c #231F31",
"o  c #242033",
"O  c #262339",
"+  c #28253C",
"@  c #2A283E",
"#  c #3D2134",
"$  c #32263F",
"%  c #65171F",
"&  c #7B1419",
"*  c #68221F",
"=  c #7D241A",
"-  c #481F27",
";  c #411B29",
":  c #581A23",
">  c #621D20",
",  c #6A1D2A",
"<  c #7B1A22",
"1  c #4B2226",
"2  c #412129",
"3  c #4D252F",
"4  c #4A3329",
"5  c #4B392A",
"6  c #452531",
"7  c #4F2D33",
"8  c #562F3F",
"9  c #4A3A34",
"0  c #672622",
"q  c #673924",
"w  c #692738",
"e  c #752A38",
"r  c #6D3B3B",
"t  c #723038",
"y  c #5A4738",
"u  c #714A2F",
"i  c #2D2C44",
"p  c #2E2D49",
"a  c #342E49",
"s  c #323145",
"d  c #34344C",
"f  c #3A384E",
"g  c #333353",
"h  c #3C3553",
"j  c #36375A",
"k  c #3A3B5C",
"l  c #4A2D47",
"z  c #512F48",
"x  c #48344D",
"c  c #563449",
"v  c #403757",
"b  c #553B54",
"n  c #6C3B4A",
"m  c #3F4163",
"M  c #584848",
"N  c #46475B",
"B  c #554952",
"V  c #6D4D56",
"C  c #655754",
"Z  c #695A57",
"A  c #71635E",
"S  c #414466",
"D  c #464961",
"F  c #494C65",
"G  c #46496A",
"H  c #494D6C",
"J  c #524C64",
"K  c #4C516F",
"L  c #545267",
"P  c #51546E",
"I  c #4D5272",
"U  c #515672",
"Y  c #545975",
"T  c #5C5C75",
"R  c #565D7A",
"E  c #6B5468",
"W  c #745866",
"Q  c #5F6376",
"!  c #5C627D",
"~  c #736966",
"^  c #7D726B",
"/  c #65687C",
"(  c #7C757C",
")  c #881818",
"_  c #951414",
"`  c #A2170F",
"'  c #AA1B0D",
"]  c #B21E0B",
"[  c #A31D13",
"{  c #882B19",
"}  c #9B2512",
"|  c #972518",
" . c #8D3118",
".. c #9B3817",
"X. c #AE2E0E",
"o. c #B1230D",
"O. c #BA2309",
"+. c #BC2A0D",
"@. c #A22410",
"#. c #A42815",
"$. c #A22C1C",
"%. c #A93714",
"&. c #A53A13",
"*. c #B23617",
"=. c #831D24",
"-. c #87282A",
";. c #912E2B",
":. c #953823",
">. c #A82F20",
",. c #A63825",
"<. c #C02608",
"1. c #C32908",
"2. c #C33A0B",
"3. c #C13011",
"4. c #94581C",
"5. c #9D5C1B",
"6. c #AC4415",
"7. c #B24A1D",
"8. c #AA5516",
"9. c #B85816",
"0. c #9C6E1E",
"q. c #A46E1B",
"w. c #B76A17",
"e. c #A6751C",
"r. c #BB7116",
"t. c #BA731D",
"y. c #964A34",
"u. c #A64628",
"i. c #B84627",
"p. c #B3512D",
"a. c #906827",
"s. c #A66526",
"d. c #A27529",
"f. c #A77628",
"g. c #B27627",
"h. c #A86E33",
"j. c #AB7E31",
"k. c #C3400C",
"l. c #C24B0E",
"z. c #C3520F",
"x. c #CB4916",
"c. c #C65911",
"v. c #D25F1A",
"b. c #C36A13",
"n. c #C47214",
"m. c #C6791E",
"M. c #D96620",
"N. c #863B41",
"B. c #86534D",
"V. c #987B4A",
"C. c #8B6C53",
"Z. c #B0715F",
"A. c #897470",
"S. c #857C74",
"D. c #BC851C",
"F. c #B0822F",
"G. c #BA8A39",
"H. c #C68719",
"J. c #CF801D",
"K. c #C58918",
"L. c #CF8B2F",
"P. c #D38420",
"I. c #CF9320",
"U. c #D39623",
"Y. c #DA9C29",
"T. c #DA963C",
"R. c #E28D2F",
"E. c #E79A37",
"W. c #F19937",
"Q. c #F09F38",
"!. c #DEA02C",
"~. c #DAA034",
"^. c #E5A532",
"/. c #EAAA37",
"(. c #F0AB3A",
"). c #F2B33D",
"_. c #AB8B4E",
"`. c #938578",
"'. c #AD9175",
"]. c #C69642",
"[. c #CC9D4C",
"{. c #D49C47",
"}. c #CFA04E",
"|. c #D7A954",
" X c #D7A956",
".X c #FEBE46",
"XX c #F5B84A",
"oX c #E4B357",
"OX c #CCAA68",
"+X c #5E6682",
"@X c #656B82",
"#X c #696F83",
"$X c #6A7084",
"%X c #6D7488",
"&X c #777980",
"*X c #72788A",
"=X c #7F8187",
"-X c #7B818E",
";X c #86888A",
":X c #90918D",
">X c #808690",
",X c #888D92",
"<X c #8F9293",
"1X c #949592",
"2X c #969996",
"3X c #989C99",
"4X c #AC9184",
"5X c #9DA09B",
"6X c #B0A586",
"7X c #A6A599",
"8X c #A7A99F",
"9X c #ACAEA1",
"0X c #C0B28A",
/* pixels */
"X X X X X X X X X X X + g M d.0.5 + g k k g O X X X X X X X X X X . & ` O.1.1.2.n.U.)..X.X.X.X).U.n.2.} 1 X X O g m R +X+XK s o ",
"X X X X X X X X X X X + g M d.0.5 + g k j g i X X X X X . ; - 1 1 > _ ' O.1.2.z.r.I.^.)..X.X.X).U.n.k.} 1 X O p k G U Y U D @ X ",
"X X X X X X X X X X X + g M d.0.5 O g j j g i X X X X . > ) _ [ } @.o.<.1.2.c.m.D.I.I.!.)..X.X(.U.n.k.} 1 O p k I U G m f @ O X ",
"X X X X X X X X X X X O p M s.5.4 + g j g p X X X   ; > _ ' +.1.1.3.i.i.i.p.G.G.F.F.d.F.].{./.E.Y.m.c...7 i g m I I k p O X X X ",
"X X X X X X X X X X X X O 7 ....1 + g g i o X X X ; { [ o.O.1.1.1.3.Z.'.'.4X'.6X`.A C M C B.p.M.W.^.J.5.M g j k m k p O o X X X ",
"X X X X X X X X X X X X X 1 } } 1 + g g + X X   . > @.+.>.,.>.>.i.Z.4X9X9X9X7X,X/ K j g j c ;.p.E.).~.j.M g g g j g i O o X X X ",
"X X X X X X X X X X X X X 1 } } 1 O g g + X X . % ) o.>.B.W W A.Z.6X7X9X9X3X>X@XK k p p d h x B.{..X).L.y + + i g j g p O X X X ",
"X X X X X X X X X X X X X 1 } } 1 O p p O X X . ) @.>.y.E ! $X=X2X5X3X3X1X&X/ F k p o + g k j Z [..X.X].y o X O s g j g + X X X ",
"X X X X X X X X X X X X X 1 } } 1 X o O X X X 1 _ >.B.E J Y -X<X*X%X%X#XT J f s + O X + g k j Z }..X.X].y X X o O p g g + o X X ",
"+ + + + + O o X X X X X X - } } 1 X X X X   . > #.>.V U G Y ;X,X%X+XU G k p O X X X X + g k k C ].)..XT.u 4 1 ;   O d g p O + + ",
"g g g g d p O X X X X X X 1 } } 1 X X X X . % _ o.>.M H U ! $X@XI k g a p O X X X X X + g j j M F.~.)./.D.0...= 2 O g j g g g g ",
"j j k j g p O X X X X X X 1 } @.> . X X X 2 { ..} -.x m ! ! ! K k p   X X X X X X X X + g j g M d.I.(.XX!.P.v.7.u 4 c z h g g d ",
"k j j j i O X X X X X X X 1 } o.) % . X X 4 4.5.q 6 h S R ! G k p O X X X X X X X X X + g g i 9 0.I./..X).(.Q.R.g.5.:.= 6 + + + ",
"z x g p O X X X X X X X X - } O.X. .q 5 5 u q.0.4 O g S Y Y k p X X X X X X X X X X X + g h 9 u 0.m.R.W.W.Q.(./.Y.P.v.7.q 5 5 5 ",
"< , 6 X X X X X X X X X X 1 } 2.9.r.q.0.0.e.D.0.5 + g S R U d O X X X X X X X X X X X + g M u 0.&.%.x.x.x.M.P.Y./.)./.R.g.0.0.0.",
"$.{ q 7 2 .   X X X X X . * &.z.J.U.U.U.I.I.K.0.5 O p k K F s X X X X X X X X X X X X O p M 5.9.#.` $.>.,.u.h.G.[. X X[.F.f.w.w.",
"r.w.0.4.{ % . X X X X . > { 8.P.^.(.(.(.(.^.I.0.5 X O s k h @ X X X X X X X X X X X X X O 6 -.X.o.$.t n V W ^ ^ S.S.S.^ C u ;.%.",
"r.r.H.r.6. .u y y y y u u.7.J.!.XX.X.X.X).^.I.e.q .   O p p O X X X X X X X X X X X X   . : ) ` #.-.x m K Y U P P U Y U G b n -.",
"#.6.r.H.r.g.L.].].T.].T.T.E.(.)..X.X.XXX!.I.K.r.6.= 2 o O O o X X X X X X X X X X X X . % ) ' $.t c v k m m d s s d k H U T E E ",
"-.:.9.m.m.I.^./.E.T.[.}.}. X X|.[.{.T.Y.I.K.K.n.k.} 1 X X X X X X X X X X X X X O O X 2 ) ` $.;.b m j j d p + X X O p k K R ! +X",
"E B.u.z.n.K.I.H.7.u.V A ^ A.A.^ ~ V u.i.n.K.K.n.k.} 1 X X X X X X X X X X X X O p p O - _ $.t b P H d + + O o X X X O i k H +X+X",
"+XW ,.+.9.w.q.4.-., z m I +X+XY H b N.p.h.g.t.9.k...1 o X X X X X X X X X X O p g h # : -.-.b G K N @ X X X X X X X X O p v Y +X",
"+XE ;.` @. .q 4 6 6 g k m G +X+XT / S.`.A.B.y.%.w.5.4 X X X X X X X X X X O p g j l 0 < w b J H f i O X X X X X X X X X O h U +X",
"/ E -.` _ & . X X X p g g k G +X@X*X3X5X-XA.B.u.n.e.q 2   X X X X X X X O i g j j l < =.b G +XI s o X X X X O O X X X X X p U +X",
"+XE -._ _ & . X X X X $ + p j H R *X3X8X5X2X4X_.G.w.%.= 2 X X X X X X O p g j j + 6 & =.E +X+XH s X X X X O p p O X X X X s P +X",
"Y V =._ ) % . X X X X X X O p k H @X,X5X8X9X8X6X_.g.9.%.0 2   X X X O i g j g a . : ) =.b +X+XI g O X X O i g g + X X X X s U @X",
"S z =.) : .   X X X X X X X O p k P @X>X5X9X8X7XS.C.g.9.&.= . O X + p g j g i 6 % ) _ =.b H +XG k p O O p g j g + X X X X s K +X",
"z w =.& ; X X X X X X X X X X O p k K $X2X8X5X<X-XA.V.g.z.&.0 1 - 6 a g g a # : ) _ =.w l m +X+XH k p i g j g p O X X X X p F R ",
"=.=._ & . X X X X X X X X X X X O p k T 1X5X>X-X<X<X( C.g.9.&.} } { 6 O X # , ) _ ) w x k S R ! ! K k g j g i O O X X X X + k D ",
"` _ ) > . X X X X X X X X X X X X O p N :X2X$X/ ,X<X-XS.V.g.z.2.1.@.* - - > ) ` _ < z j g k Y +XR K m k g p O X X X X X O i g k ",
"] [ , .   X X X X X X X X X X X X X O B ;X:XQ K @X*X<X:XS.C.g.c.2.O.@.@.} @.] ' ` =.z g i d U R H m k j i O X X X X X O p g j j ",
"1.[ 3 X X X X X X X X X X X X X X X X N ;X:XL S H / ;X>X$X~ V.s.*.O.<.1.1.1.1.] _ w l p O p G I m j g p O X X X X X X + g j g g ",
"1.} z p o X X X X X X X X X X X X X X N ;X:XP j d f N Y ! / / B.;.' O.1.1.1.1.$.e l i X X i j m k g i X X X X X X X X + g g i + ",
"k.u.c g @ o X X X X X X X X X o X X @ L ;X:XL p O + s m Y +X@XE e ) o.O.<.<.O.| z p X X X + p g j j + X X X X X X X X O p p O X ",
"n.s.M g @ X X X X X X X X X o X X @ D / 2X;XB O o o O d U +X+XT B w =.' O.O.' ) 6 X X X X X + p g g + X X X X X X X X X O O X X ",
"K.d.M g i O o X X X o @ @ @ @ s @ N Q -X<XS.f X o o o i N U Y U H b e _ o.o._ > . X X X X X X + g j + X X X X X X X X X X   . ; ",
"K.0.M k g p O X X O s g g k m P P / :X<X-XQ s o X X X o i d k G U I b e $.#.> .   X X X X X X i g g + X X X X   X X X X X . % & ",
"K.d.u x k g O o @ @ p g g k H U P Q =X=X/ F i o X X X o X i p k I I m c $._ 1 o X X X X X X X i g g + X X X X X X X X   # : ) ` ",
"K.w.;.w x g + O p p @ + O @ s s s f F P F k + X X X X X X X X i k m k c | } 1 X X X X X X X p g j g X X X X X X X X X . % _ ' ] ",
"U.m.*.=.x g i @ d p O X X X X X X O s d j g + X X X X X X X X i g j j c $.} - X X X X X i p k m m k j i @ + + O X   . :  .X.*.2.",
").R.x.| c j g p @ O X X X X X X X o O i g g @ X X X X X X X X O g k k z -.) ; X X X X O p k I R R R K F k g g p O . % { 8.b.n.n.",
".X(.v.&.n l h j i @ X X X X X X X o X O p p O X X X X X X O O i g j g l < & ; X O + s d k G U Y K P P F k g l l 6 0  .6.r.K.I.U.",
".X(.P.9.| w x j g p O X X X X X X X X o O O X X X X X X X O p g j g i 6 & & ; O p k F P Y Y G v d s s s @ 6 , ) | &.8.r.H.I.^.).",
".X).!.m.7.;.u B f s @ O o X X X X X X X X X X X X X X X O i g j j g O - { { : # a k K Y R P b l 3 1 1 - 1 > { %.l.v.P.U.U.!.)..X",
".X.X).!.m.w.d.a.# @ s s O X X X X X X X X X X X X X X O p g j j k g + 4 4.8.{ > # s j D S b w =.| } } } } %.9.m.R.(.(.(.(.)..X.X",
".X.X.X).!.U.I.f.u y s s O X X X X X X X X X X X X X O p g j g g g a 6 q q.r.6. .q 9 M M M r | [ } $.| $.$.,.h.G.[. X X X X X X X",
".X.X.X.X).(.XXY.D.u # @ X X X X X X X X X X X X X O p g j h i O + 6 = 6.r.H.r.w.q.0.d.d.d.s.*.$.e c c c c M ~ ^ S.S.S.S.S.`.S.S.",
"oXoX|.oXXXXXXX^.I.e.y . o X X X X X X X X X X X X O p g g p O   ; 0 %.z.m.U.U.U.U.I.K.H.n.w.7.;.B S G S k m I Y Y R +X@X$X*X*X*X",
"0X6X`.'.oX).!.I.I.e. .% . X X X X X X X X X X X X X o + + O o - = &.c.m.^.).)./.).^.I.n.x.7.B.E T Y R I m k m S S H R %X,X3X3X3X",
"9X8X-X`.OX|.G.F.D.r.X.) : .   X X X X X X X X   . ; 1 1 4 5 y u 7.v.P.!.)..X.X.X)./.I.m.7.B.W +X@X+XR I k g g g d k F Q =X2X7X9X",
"9X5X5X7X6X6X`.C.F.w.+.o.) % . X X X X X X X X . % & } ..4.f.G.T.E.(.(.)..X.X.XXX!.I.K.g.C.W / +X@XR H v p + + + O i i f F / 2X9X",
":X5X8X9X9X5X-XS._.q.*.O.' ) > 1 1 1 4 5 5 4 1 * ) ` } ..s.j.].[.[.[.[.[.[.[.].L.H.n.m.f.~ R Y ! +XR G k @ X X X X X X O s D ( <X",
"P / 2X9X9X8X5X:XS.B.;.` o.] @.} @...5.0.0.5...} O.} 0 7 M M Z Z Z Z Z Z C C y u 6.9.n.d.C D m H R +XR H s X X X X X X o O s D P ",
"k P -X5X8X9X8X3X*XE N.$.o.O.O.1.2.l.b.r.q.5...} ..{ 7 f J P P U G m k j k g i 6 = &.9.s.M j g k I R ! P s X X X X X X X o O p g ",
"k D +X,X5X9X9X5X*X+XE V | ' O.k.c.b.9.6.q 4 1 7 z b J / ;X:X:X&X@XI m j k j g a 6 0 &.&.c g i p j G R P s X X X X X X X X o + + ",
"k F / -X5X8X5X<X$X@X+XE t | *.z.m.m.%.{ 6 @ i f F T / >X,X2X<X;XT F k g g g g p O 1 | $.8 p O O p k H D s O X X X X X X X X X X ",
"j K -X5X8X5X-X%X@X+X+XY b n 8.J.^.L.u 6 a k F Q =X1X1X:X*X$XT G h s @ + + + + O O 1 } } 3 O o o O @ p s s p O X X X X X X X X X ",
"m Q 1X8X5X<X*X+X+X+X+XI G C F.Y./.G.y p k K @X-X<X2X<X;X/ G j p O X X X X X O + O 3 } } 1 o X X X X X + g g + X X X X X X X X X ",
"! #X3X5X-X%X+X+X+X+XG G U ~ [./.Y.j.M k K / ,X<X-X$XT F h s i O o X X X X O p g g 8 ..} 1 o X X X X o O g g + X X X X X X X X X ",
"+X$X,X<X%X! ! Y Y G m m R `. X(.J.s.C H R #X;X( Q H S g i O X X X X X o O i g j g 8 #.#.* ;   X X X o O p p O X X X X X X o O + ",
"+X+X%X%X@X! G k d s j S R `.}./.v.u.Z ! ! Q N N s s j j g p O X X X X X p g j g i 3 } O.@.= 2 X X o X o O O o X X X X X X O p g ",
"U U P P U F k p + O p k Y ( [.R.7.;.E +X! N @ X o O p g g p O X X O i p g j h a 2 * &.k.k.6.q 4 1 2   X X X X X X o O + s s g k ",
"s s s s s i @ O o O O d U ^ G.f.u 7 L ! G k @ o X o O + i X X X p g g g j g i 6 = &.9.n.n.r.q.5...= 2 X X X X X X O p k G H m k ",
"X X X X X X X X X X o s U ~ F.0.5 s K R m g O X X X X o X X X i g k k j k g + 1 } k.n.K.K.K.K.n.k.} 1 X X X X X o O g S R R m k "
};
