/* XPM */
static char *_f068a1216b84df88c2d78018b98097fTGZqDz2syFuuBPjb[] = {
/* columns rows colors chars-per-pixel */
"64 64 239 2 ",
"   c None",
".  c #010509",
"X  c #001427",
"o  c #1E2C3C",
"O  c #593A15",
"+  c #6C3C1A",
"@  c #653816",
"#  c #723D1A",
"$  c #6C3D0A",
"%  c #5B3D26",
"&  c #613E23",
"*  c #79441B",
"=  c #65421E",
"-  c #6A4424",
";  c #674429",
":  c #744323",
">  c #7C4624",
",  c #7D4A25",
"<  c #754A29",
"1  c #7B4C2B",
"2  c #724826",
"3  c #7C512D",
"4  c #694B34",
"5  c #764C32",
"6  c #7C5334",
"7  c #79553A",
"8  c #6D523E",
"9  c #18354A",
"0  c #34516F",
"q  c #2F4055",
"w  c #524A4A",
"e  c #6B5847",
"r  c #7C5C44",
"t  c #785D4B",
"y  c #796555",
"u  c #7B6048",
"i  c #415F7B",
"p  c #736C60",
"a  c #59727B",
"s  c #86481C",
"d  c #94491D",
"f  c #824B25",
"g  c #8B4C25",
"h  c #824D2A",
"j  c #8B4D29",
"k  c #854624",
"l  c #954E25",
"z  c #9B4E26",
"x  c #924D28",
"c  c #984F2A",
"v  c #84512C",
"b  c #8B532B",
"n  c #8B5124",
"m  c #925126",
"M  c #9D5226",
"N  c #94532A",
"B  c #9B542B",
"V  c #9D5B2D",
"C  c #94592C",
"Z  c #845433",
"A  c #865A3A",
"S  c #8B5C3A",
"D  c #875735",
"F  c #945A32",
"G  c #9B5B34",
"H  c #935633",
"J  c #A45326",
"K  c #AA5626",
"L  c #A35529",
"P  c #AB562A",
"I  c #A45A2B",
"U  c #AC5A2B",
"Y  c #A95A25",
"T  c #B0572A",
"R  c #B35C2C",
"E  c #BA5D2C",
"W  c #B25725",
"Q  c #A35D34",
"!  c #AD5D32",
"~  c #A05030",
"^  c #B45E32",
"/  c #BB5E31",
"(  c #98613A",
")  c #8E613B",
"_  c #A8632C",
"`  c #B3632D",
"'  c #BD632D",
"]  c #AB6434",
"[  c #A8653A",
"{  c #B46333",
"}  c #BB6333",
"|  c #B46B3A",
" . c #BA6937",
".. c #BB703B",
"X. c #A6541F",
"o. c #C25E2A",
"O. c #C15E33",
"+. c #C3622D",
"@. c #C8652B",
"#. c #C36432",
"$. c #CB6632",
"%. c #C46A34",
"&. c #CA6C34",
"*. c #C46C3C",
"=. c #CB6C3B",
"-. c #C3663B",
";. c #D36B35",
":. c #D46E3A",
">. c #DB6E3A",
",. c #D86A35",
"<. c #CB7234",
"1. c #C5733C",
"2. c #CB733B",
"3. c #CB7A3D",
"4. c #C47437",
"5. c #D47335",
"6. c #DC7236",
"7. c #D4733C",
"8. c #DC753B",
"9. c #D57A3D",
"0. c #DC7B3C",
"q. c #DB7836",
"w. c #E3753C",
"e. c #E37B3D",
"r. c #EB7B3D",
"t. c #E47636",
"y. c #E9743B",
"u. c #855E42",
"i. c #846046",
"p. c #83624B",
"a. c #8B634B",
"s. c #8B6245",
"d. c #966847",
"f. c #866955",
"g. c #917056",
"h. c #A56C4B",
"j. c #A66D46",
"k. c #A9724A",
"l. c #BC7443",
"z. c #BC7B4D",
"x. c #B6724A",
"c. c #A87658",
"v. c #B67852",
"b. c #B16F42",
"n. c #8B7463",
"m. c #847466",
"M. c #9A7B63",
"N. c #806F63",
"B. c #A47B64",
"V. c #B47D66",
"C. c #D16E40",
"Z. c #C47B45",
"A. c #CB7B43",
"S. c #C47C4B",
"D. c #C97546",
"F. c #D57241",
"G. c #DB7442",
"H. c #D47B42",
"J. c #DC7C43",
"K. c #D67F4D",
"L. c #C47C54",
"P. c #CD7446",
"I. c #E37643",
"U. c #E37C42",
"Y. c #EC7C43",
"T. c #E97A46",
"R. c #F17D42",
"E. c #DB803E",
"W. c #E2813D",
"Q. c #ED843C",
"!. c #F5803C",
"~. c #BC8359",
"^. c #BD895B",
"/. c #AC825D",
"(. c #948478",
"). c #B4856B",
"_. c #B98867",
"`. c #A88977",
"'. c #B98C75",
"]. c #B89379",
"[. c #AF8C6E",
"{. c #CB834D",
"}. c #DC8442",
"|. c #DA864A",
" X c #CA8354",
".X c #CA8759",
"XX c #D3855C",
"oX c #D88B59",
"OX c #E38243",
"+X c #EB8244",
"@X c #E4834A",
"#X c #ED844B",
"$X c #EA894A",
"%X c #E68A48",
"&X c #F38245",
"*X c #F3854B",
"=X c #F38A4C",
"-X c #FA8B4C",
";X c #FA8749",
":X c #E78B57",
">X c #F58C52",
",X c #F98C53",
"<X c #F28C58",
"1X c #FA9256",
"2X c #C78A68",
"3X c #D88A65",
"4X c #C99267",
"5X c #D79669",
"6X c #CA9977",
"7X c #D89974",
"8X c #D08E72",
"9X c #E69767",
"0X c #F59B69",
"qX c #E69D75",
"wX c #E48B6B",
"eX c #EDA37C",
"rX c #EAA779",
"tX c #F6A779",
"yX c #E5A06A",
"uX c #506F87",
"iX c #648198",
"pX c #998C89",
"aX c #9A9698",
"sX c #B5978A",
"dX c #A69285",
"fX c #A8ABAD",
"gX c #8F9EA6",
"hX c #C99881",
"jX c #D8A786",
"kX c #CAA795",
"lX c #F3AC85",
"zX c #F9B58A",
"xX c #E8AF8D",
"cX c #C9B5AE",
"vX c #D4C3B8",
"bX c #EECBB6",
"nX c #A9B9C6",
"mX c #B6BDC7",
"MX c #EBD8D7",
/* pixels */
"                                                                _.~.z.v./.c.                                                    ",
"                                                          ^.{.H.9.A.9.3.Z.l.b.h.M.                                              ",
"                                                      2X|.}.}.9.H.H.A.A.A.A.Z.l.j.d.M.                                          ",
"                                                    4X|.|.OXJ.9.9.9.9.H.H.H.3.1.1.| [ d.                                        ",
"                                                  oX@X}.}.OXe.q.q.8.q.8.q.8.9.2.2...| Q s.                                      ",
"                                                %X%X@X}.+XY.e.w.6.w.8.8.8.8.7.5.2.4. .[ _ F                                     ",
"                                              oX%X%X%XOX+XY.r.e.w.w.e.0.8.8.5.5.<. . .[ ] V A                                   ",
"                                            oX%X:X%X+XW.+XY.r.r.e.w.w.8.0.q.8.5.&.%. .{ Q G F D                                 ",
"                                          '.%X%X#X+X+XQ.*XR.R.r.r.r.r.I.t.t.6.5.&.#.} U I Q F F u.                              ",
"                                          XX+X*X$X+X+X&X;X&XY.Y.R.r.T.U.t.w.q.5.&.+.} U I Q F D Z g.                            ",
"                                        4X$X+X+X$XOXQ.&X;X&XR.&X;X;X&XY.r.w.G.5.+.` R U L V F b b A                             ",
"                                        :X@X3X3XG.W.+X;X-X;X&XR.T.7.K.K.T.!.6.;.+.` U I I I C b b Z f.                          ",
"                                        @X6XMXMX8X8.+X-X,X*Xw.$.D.xXMXvX).K.+X5.' R U I I I B b v v Z                           ",
"                                      4X$XaXi nXbX7.r.,X,Xr.@.o.jXnXiXnXcXx.T.q.' R U K L L B N b b 6                           ",
"                                      oX:Xw X uXvX0.&X-X1Xe.+.@.kX0 X 0 mXM.5.I.' R U J J L B N v v v u                         ",
"                                      :X9Xw . uXcXOX&X-X;Xr.;.} sXo . q fXm.$.Y.+.R U K K L B m b v v 7                         ",
"                                      $X<X`.uXaX3XW.&X&X&XR.t.@./.a 9 uXgXp.8.+X$.E U R P P L M m v v 3 m.                      ",
"                                    4X%X%X X). XE.W.&Xr.r.Y.e.q.#.).pXpXn.l.;Xe.;.E U R U P L M x j v 6 t                       ",
"                                    .X%X@XOX0.W.W.e.Q.6.e.&Xy.T.w.;.*.*.7.+X+Xw.>.+.E R R P P M m n v 6 7                       ",
"                                    oX%X%X+XOXOX0.W.r.$.7.Y.r.r.Y.#XY.T.Y.R.Y.w.6.$.O.R R R P L B N v v 5                       ",
"                                  [.|.%X+X+XOXU.5.OX>.W ' >.>.R.R.*X,X*X+Xr.r.w.;.$.' R R R U L M B b b 3 y                     ",
"                                sX.X|.$X=X+XOX8.5.e.#.W E $.>.I.+X=X1X>X*X+Xr.6.+.E R R R R U U L L B V F g.                    ",
"                              jX7X{.|.+X=X+Xe.5.e.e.P ' &.K #.I.T.#X=X>X,X&XT.>.E R U R R R U U U P U ^ { | b.                  ",
"                          jXeXrX5X X}.+X+XOX8.E.+XU.X.#.T.' d -.8.T.*X=X&Xr.w.;.R J J T T T U P P P U R } &.%. .l.              ",
"                      kXxXtXtXrX4Xz.H.}.I.I.9.U.e.7.K #.#XH.s I $.G.I.r.Y.w.>.@.P J J P P T P J J L U { %.F.G.G.7.1.x.          ",
"                    jXzXzXtXeXqX4Xz.A.9.8.J.7. .` R x I } ! s M o.C.I.8.8.;.;.+.K J J P T P P J M L P / $.G.#X,X#Xe.t.%.        ",
"                  jXtXzXlXeXqX7X4Xv.Z.A.H.H.2.Y s s * s k s d J W +.;.;.8.;.$.E P P L J J L L M z B L ^ #.=.G.T.>X*Xr.8.|       ",
"                  lXtXeXqXqX7X7X2Xc.S.J.J.J.9.%.! L M M z J W E $.$.>.,.>.,.,.@.E K I L J J z z B B M U ^ } #.%.9.U.+Xe.+.      ",
"                rXeXqX7X5X4X6X'.'./.z.|.@XOX9.2.C.=.=.:.:.:.8.G.G.I.I.T.Y.T.w.;.E K L L M z M l z B M L U U ! { %.q.+Xr.&.)     ",
"              jXeX7X8X2X'.`.`.      4X|.OXOXe.t.I.I.Y.*X,X>XT.I.w.6.8.e.Y.+XT.8.' K L z z z l m m m m b b S s.( [ 1.+Xr.&.b     ",
"            ].lX9X8X_.).dX            K.E.H.P.1.2.7.8.J.0.8.F.7.7.7.:.:.I.I.I.:.E J z z z l x g x j , r           _.W.r.&.g     ",
"            rXqX2X).`.                {.J.I + - : f j g j j g x N c ~ I $.w.>.#.R J z l l x j j f < %             `.0.r.' v     ",
"          jXyX2XB.(.                  ~.|.S.v & % & ; ; ; - 2 2 2 = O $ 1.>.$.E K M l l l l g f 2 @ %             M.e.8.I i.    ",
"        6X9X4XB.(.                    ).1.H.H. .G F b 3 2 - - 2 * f V D.F.+.#.' K J l l l g f 1 - % e             _.0.&.n       ",
"      6X9X0X^.                        `.Z.1.J.@XJ.1. .] V V I { 1.OX@X;.#.#.+.R P J z l x g , 2 - &             `.K.8.` D       ",
"      9X2XqX2X                          z.A.2.7.J.J.0.e.0.J.+X+XT.>.$.+.#.#.+.E U L c z x g , < 2 ;             .X0.5._ d.      ",
"    qX X    2X                          v.Z.1.1.4.2.5.5.8.5.5.&.#.' +.+.#.#.#.E P L M l x g f < < 4           4Xr.e.U K M.      ",
"  6XwXB.    '.                          ~.z.l..... . .' ' +.+.+./ E } } } E } R U P J M m j f 1 < 8         '.<.5.H.S ! B.      ",
"  qXv.    dX[.                          _.z.l...|  .{ { { { R R R U R R R R R R R U P L B m j 1 1 8         *.c.oXS.    v.      ",
"hX3X      dX`.                          [.Z.l.| [ [ [ ] ] _ I I I L I I U R R R R U U L L B b h 1 8       2Xh.  3Xk.    v.      ",
"  6X                                    '.S.z.b.[ F F F F F C N b n m N V I U R R R R U I V F v 1 7     pXv.    2Xa.    V.      ",
"  vX                                    ]. Xz.b.d.S S A D D Z v h h v v g B U U ^ E } R U I G b v 7             _.n.            ",
"                                        '..XL.z.j.S A A A A Z v v 3 3 1 1 h F ] { } #.%.} ^ Q G b 7             ].              ",
"                                        ]..X Xz.h.S u.r r r 7 7 6 6 6 6 7 5 < H { #.#.&.#.} ! Q H 7                             ",
"                                        6XXX.XL.h.u.r r r e y n.m.N.m.        f.j.-.%.=.=.%. .] Q Z                             ",
"                                        6XoXXXL.k.u.r t y                         x.=.=.:.=.=.{ [ H                             ",
"                                        6X3XoXXXv.i.r t (.                          *.7.F.F.C.-.] H                             ",
"                                        6X9X:XXXv.a.r p                             S.G.G.G.7.=.{ H                             ",
"                                        6X9X0X3Xk.a.t                               _.@X#XI.F.C. .F                             ",
"                                        6X9XtXXXh.a.N.                                :X1XI.F.F. .G                             ",
"                                        7X9X0X Xd.a.(.                                :X1XJ.G.G. .F                             ",
"                                        5X0X9Xv.a.p.                                  :X>XI.G.F. .H                             ",
"                                        9X0X9Xk.a.f.                                  <X=XI.G.F.! b                             ",
"                                      '.9X9XoXk.a.n.                                '.<X=X8.F.C.Q h                             ",
"                                      6XoXXXL.h.a.n.                                8XT.8.7.2.*.V ,                             ",
"                                      ~.S.v.k.s.a.n.                                Z.<.&.&. .! N < f.                          ",
"                                    d.( [ j.d.s.a.f.                              d.Y Y ` { I B h f A                           ",
"                          _.d.D ( G b Z D ) S u.i.i.                        c.( m s , g l B x k , f h                           ",
"                  aXsX_.A.5...b * N b h Z A A u.u.a.n.                ~.A.` s , g d * * * s * : > h , p.                        ",
"                2X.X3.<.5.8.9.4.C * > 1 1 Z A u.i.a.f.            ~.3.7.5.<.` s + > * + + # # : < 1 h A                         ",
"          '.XX@X&Xr.5.5.;.Y.;Xr.9.n @ - 2 1 7 r r p.f.aX  c.XX|.E.9.<.*.5.e.t.4.C # + + + + # : > h h 6                         ",
"      ].|.r.y.6.J.0.;.^ W 7.+XQ.Q.Y O % 4 8 e t y f.B.2XJ.r.&X-Xq.H.} z K T.+XOX9.I @ @ @ @ # * : 1 5 t                         ",
"              ] e.@.M k k c ] | S.S e p fX          hX:.o.O.$.5.H.<.g # s U %.0.Q.2.+ % 4 4 ; 8 y                               ",
"                  a.                                  M.g.`.c.j.XXI 5 4 6 D 1 S v.c.                                            "
};
