/* XPM */
static char *result[] = {
/* columns rows colors chars-per-pixel */
"64 64 251 2 ",
"   c #010509",
".  c #291916",
"X  c #2E1C19",
"o  c #301C18",
"O  c #36211D",
"+  c #001428",
"@  c #1B2C3D",
"#  c #332624",
"$  c #3B2420",
"%  c #3B2925",
"&  c #5C390F",
"*  c #40221D",
"=  c #703709",
"-  c #66391A",
";  c #743B13",
":  c #773B17",
">  c #412622",
",  c #482620",
"<  c #452E24",
"1  c #4C2B25",
"2  c #452E2A",
"3  c #4E2E28",
"4  c #522E27",
"5  c #532F28",
"6  c #48312C",
"7  c #53322D",
"8  c #593B29",
"9  c #493935",
"0  c #533630",
"q  c #523C37",
"w  c #5E3B34",
"e  c #673E22",
"r  c #663E37",
"t  c #663F38",
"y  c #6C441B",
"u  c #7A431A",
"i  c #57423A",
"p  c #6B4329",
"a  c #774525",
"s  c #7D4924",
"d  c #7D4B2B",
"f  c #664638",
"g  c #6A443D",
"h  c #7D4A31",
"j  c #72473F",
"k  c #785239",
"l  c #0E354B",
"z  c #2F516D",
"x  c #574C4A",
"c  c #634A44",
"v  c #684943",
"b  c #744B43",
"n  c #744C46",
"m  c #695248",
"M  c #745446",
"N  c #7D5A43",
"B  c #73534C",
"V  c #79524B",
"C  c #765849",
"Z  c #7C5A4C",
"A  c #6A5A54",
"S  c #745B55",
"D  c #7A5C54",
"F  c #775B58",
"G  c #7C604F",
"H  c #776258",
"J  c #7D645B",
"K  c #54737C",
"L  c #7C6A64",
"P  c #7F7472",
"I  c #8C3E15",
"U  c #884619",
"Y  c #934D14",
"T  c #944919",
"R  c #9D4A1D",
"E  c #A0430F",
"W  c #A44C1E",
"Q  c #AC4D1C",
"!  c #B44F19",
"~  c #AA5319",
"^  c #AC521E",
"/  c #B3521E",
"(  c #BA541D",
")  c #B65919",
"_  c #874725",
"`  c #844B24",
"'  c #8B4C24",
"]  c #844D2B",
"[  c #944B22",
"{  c #934B27",
"}  c #9B4D22",
"|  c #865129",
" . c #8C512B",
".. c #975428",
"X. c #9C552B",
"o. c #854F30",
"O. c #835333",
"+. c #895737",
"@. c #8C5A3B",
"#. c #955A35",
"$. c #A34D22",
"%. c #A84D23",
"&. c #A35224",
"*. c #AC5322",
"=. c #A65828",
"-. c #AC5B2D",
";. c #B45422",
":. c #BB5522",
">. c #B45A25",
",. c #BC5A24",
"<. c #B6592B",
"1. c #B55A2D",
"2. c #BC5D2A",
"3. c #A75C33",
"4. c #A2622B",
"5. c #A2612F",
"6. c #B7622A",
"7. c #A96439",
"8. c #B76737",
"9. c #C75A1C",
"0. c #D1581A",
"q. c #CE6019",
"w. c #C25721",
"e. c #C45B24",
"r. c #CB5C24",
"t. c #C45C2A",
"y. c #CA5C29",
"u. c #D45E25",
"i. c #E15F26",
"p. c #CC6225",
"a. c #C3642C",
"s. c #CC632A",
"d. c #C76A2B",
"f. c #D96527",
"g. c #D3642C",
"h. c #D46B2C",
"j. c #DD6C2B",
"k. c #DB732B",
"l. c #C96834",
"z. c #D46B33",
"x. c #D76937",
"c. c #DB6C33",
"v. c #CA743A",
"b. c #D97638",
"n. c #E76A27",
"m. c #E3662C",
"M. c #E46D2D",
"N. c #EB6D2C",
"B. c #F56C29",
"V. c #E5732D",
"C. c #EB732D",
"Z. c #EB782A",
"A. c #F4732D",
"S. c #FA782D",
"D. c #E36C34",
"F. c #EA6C32",
"G. c #E46D3A",
"H. c #EB6D39",
"J. c #F26F34",
"K. c #E47333",
"L. c #EB7433",
"P. c #EC7B34",
"I. c #E4733B",
"U. c #E97538",
"Y. c #E37B3B",
"T. c #EB7A3B",
"R. c #F47333",
"E. c #FB7534",
"W. c #F27B35",
"Q. c #FC7A35",
"!. c #F4743A",
"~. c #FB753A",
"^. c #F47C3A",
"/. c #FC7C3B",
"(. c #845A47",
"). c #8B5E43",
"_. c #905D44",
"`. c #835C52",
"'. c #87624A",
"]. c #8C624B",
"[. c #966446",
"{. c #856254",
"}. c #876759",
"|. c #856B5D",
" X c #966B55",
".X c #8E705F",
"XX c #99735B",
"oX c #A86946",
"OX c #B66C48",
"+X c #AC724E",
"@X c #BA7A4B",
"#X c #A86D52",
"$X c #A67558",
"%X c #B57857",
"&X c #876660",
"*X c #876C64",
"=X c #86746A",
"-X c #8E716B",
";X c #8E756F",
":X c #987666",
">X c #A67964",
",X c #B77E63",
"<X c #C16E4C",
"1X c #C87847",
"2X c #D87C49",
"3X c #C87C55",
"4X c #D17C55",
"5X c #E87C44",
"6X c #F27B41",
"7X c #FD7D42",
"8X c #DD803F",
"9X c #F9812F",
"0X c #EB833B",
"qX c #F68238",
"wX c #F3823D",
"eX c #FD833D",
"rX c #B5835C",
"tX c #968378",
"yX c #BA8468",
"uX c #AE8571",
"iX c #CB804A",
"pX c #D8844A",
"aX c #CA895A",
"sX c #D88558",
"dX c #E98545",
"fX c #FE8343",
"gX c #FB8647",
"hX c #E68858",
"jX c #FD8F56",
"kX c #EB915C",
"lX c #C88A68",
"zX c #D78A67",
"xX c #D89368",
"cX c #CD9474",
"vX c #EC8D69",
"bX c #EA9768",
"nX c #F99765",
"mX c #EB9B75",
"MX c #F9A476",
"NX c #3F7891",
"BX c #4D6C85",
"VX c #5E8299",
"CX c #978C8F",
"ZX c #A69C99",
"AX c #D2A79A",
"SX c #F9AD85",
"DX c #D2B8B1",
"FX c #E8C9B6",
"GX c #9EB9C9",
"HX c #ADBBC7",
"JX c #EED7D7",
/* pixels */
"-X&XV j j j j j j j j j j j j j j j j j j j j j j j j r O i k '.$X+X+XoX#X X{.Z M j j j j j j j j j j j j j j j j j j j j w $ . ",
"-X&XV j j j j j j j j j j j j j j j j j j j j j j j j g '.+XiXb.k.b.b.v.v.v.8.oX XD j j j j j j j j j j j j j j j j j j j r > o ",
"-X&XV j t j j j j j j j j j j j j j j j j j j j j V .XrXpX8X0XK.b.b.b.b.v.v.iXv.7.[.].C j b j j j j j j j j j j j j j j j r 1 * ",
"-X}.V j (.t b b j j j j j j j j j j j j j j j j b :XsXpX0X0XK.K.Y.c.Y.I.8Xb.h.v.v.8.7.[.G b j j j j b j j j j j j j j j j r 1 * ",
"-X&XV j j j b t j j j j j t j j b g b j j b b b  XpX0X0X0XP.L.V.M.K.V.C.V.K.k.b.z.d.8.-.).{.n j j j j j j j j j j j j j j w $ o ",
"S B v t r r r r r r r r r r r r w r r r r r r ].8XwXwX0XW.W.R.C.N.N.L.C.L.C.M.c.h.d.8.8.4.#.M f w r r r r r r t r r r r r 7 O . ",
"2 2 3 4 5 4 4 4 4 4 4 1 > $ * * $ > 1 4 4 4 C 1XwXwXwXP.^.E.A.A.C.N.L.C.K.N.M.j.h.d.a.8.6.=.+.m $ > 1 4 4 4 4 4 4 4 4 1 > O X . ",
"$ $ 1 5 4 4 4 4 4 4 4 1 > O X X % 2 3 4 4 f iX0XdXdXqXW.qX~.E.R.R.A.N.L.L.V.M.j.f.s.a.6.-.X.X.| c 2 3 4 4 4 4 4 4 4 4 1 > $ $ $ ",
"r r r r r r r r r r r r r 3 O $ c B g r r  XwXwXwXwX^.9XeX~.E.E.R.A.A.R.N.N.N.j.q.p.a.>.=.=.X...(.J g r r r r r r r r r r r w w ",
"j j j j b j j j j b j j j r > 6 F &XV b {.4XeXeXeXqXW.Q.7X/.Q.E.E.E.!.W.A.F.V.n.f.p.,.;.*.=.X.#. ..X`.j j j j j j j j j j j j g ",
"j j j j j j j j j j j j j t 1 0 F }.V b $XfXqX7XqXwX9XeXeX/.Q.Q.eXeX/.E.A.R.D.M.p.e.,.>.*.=.....' +.*Xj j j j j j j j j j j j j ",
"j j j j j j j j j j j j j t 1 0 F &XV b 2X6XzX4XK.P.Q.eXfX7XQ.E.R.G.5X2X^.S.n.j.p.,.>.*.>.^ .... .o.`.b j j j j j j j j j j j j ",
"j g j j j j j j j b j j j w > 2 S &Xn  X5XcXJXJXxXK.Q.fXjXQ.J.f.x.SXJXFXlX5X!.m.9.( ;.*.*.*.X.T  . .O.D b j j j j j j j j j j j ",
"r r r r r r r r r r r t r 7 O % c B v #XdXZXz GXFXK.Q.gXgXR.0.0.SXGXVXHXDX<X6XF.q.( ) / / ^ &.} [  .O.Z r r r r r r r r r w w w ",
"* > , 4 4 4 4 4 4 4 5 1 > O X X % 2 7 1XkXx + NXFXK.Q.fXgXL.0.0.AXz + z HX>Xm.H.r.,./ ~ ^ *.$.} ' ..| k f 4 4 4 5 4 4 1 , O O $ ",
"2 2 3 4 4 4 4 4 4 4 3 1 > $ $ $ $ > f 5XvXx   K DXP.eXfXeXE.m.r.CX@   l GX*Xg.6Xu.( / / / *.&.R [  .| O.A 4 4 4 4 4 4 3 > O X . ",
"F B g t r r r r r r r r r w w w r w  XwXjXuXBXCXaXW././.Q.Q.N.q.%XK l BXZX'.F.^.u.w.:.:.! *.%.W [  .' | D g r r t r r r r 3 o X ",
"-X&XV j j j j j j j j j j j j j j j %XgXwX2XuX4XZ.9XQ.Q.E.Q.R.N.p.lXCXCXL l./.R.m.y.:.:.:.;.*.%.R ' | d N M j j j j j j j r > o ",
"-X&Xn j j j j j j j j j j j j j j Z iXwXwXP.L.Z.0XZ.S.N.R./.R.!.L.f.l.z.v.6X/.R.m.u.w.:.:./ / %...Y | | k Z j j j j j j j r 1 * ",
"-X&XV b j j j j j j j j j j j j j .XhXwXwXwX^.^.K.Z.E.u.D.~.R.A.E.7XQ.!.~.~.~.J.F.u.r.:.:.:./ %.^ } ' | d D j j j b j j j r 1 * ",
"-X&XV j j j j j j j j j j j b g C rX0XgXwXqXP.T.k.W.N.( r.m.B.~.~.7XgXeXQ.~.E.N.f.u.e.:.:.;.;.*.&.&...' | S b j j j j j j r $ o ",
"F B j r r r r r r f r r w w w g :XaXpXwXfX^.P.V.V.R.y.( y.y.m.!./.fXjXgX7X/.R.N.u.w.,.w.w.:.;.;.^ ~ &.&.X.].D f r r r r r 3 O . ",
"2 2 3 4 4 4 5 4 4 4 4 1 > q .XcXxXpXdX^.fXqXR.M.P.L./ e.g.! y.!.!.fXfXgXgX7X!.m.9.:./ w.w.:.;.:.;.;.;.2.6.8.7.(.r 4 4 1 > o X . ",
"* $ 1 4 4 4 4 4 4 4 4 q J cXMXMXxXiX0XW./.P.V.P.W.P.! u.!.9.E y.F.^.fXeXQ.E.N.f.:./ Q :.:.:.;.! *.;.;.2.d.h.g.d.7._.c 3 > $ $ $ ",
"w r r r r r t r r r (.,XSXMXMXmXaXv.b.0XL.U.K.T.L.j./ s.7Xc.I *.f.H.J.R.~.N.N.u./ Q %.:.:.! ;.%.Q Q ;.t.y.G.G.G.K.z.7.'.c w w w ",
"j j j j t j (.t j `.uXSXSXMXMXmXxXrXb.k.U.L.D.a.,.,.R *.t.:.T %.r.x.H.N.D.m.m.r.! Q Q ( :.:.! W W %.;.y.g.5X7XgX7XL.n.s. Xn g b ",
"j j j j t b b b V ,XSXSXSXMXmXbXlX@X1Xb.b.Y.k./ Y U u U I I T ^ ( u.m.m.N.m.u.9.:./ %.Q %.Q %.W W $.*.,.y.x.H.7XgXfXR.C.8.`.b j ",
"j j j j b b t n >XSXMXMXmXmXmXxXlX@XiXY.U.T.b.d.>.~ W ~ W Q w.w.u.u.n.m.m.m.i.u.w.! *.*.Q Q %.W $.$.%.:.<.t.y.g.K.P./.P.p.(.j j ",
"j j j j j j b :XSXmXmXvXzXcXcX,XtX$X1X5XT.T.b.k.x.g.x.c.D.c.G.H.H.H.J.~.J.~.J.f.w.! *.Q W W W R } $.W ^ >.>.>.a.d.V.Q.A.h.+.b g ",
"w w r r r r V cXMXmXzXzXuX,X-Xx f J aXdX0XT.C.Z.L.!.~.7X7XgX~.J.F.m.N.U.~.~.^.F.w.! %.%.W W R R } } X.{ { +.@.#.-.z.qXS.f.' c t ",
"$ > 1 3 4 0 >XSXvXzXlX>X-Xx o X % 6 :X2XP.b.x.z.h.c.D.U.U.L.G.c.D.D.D.m.J.!.J.m.w.! W W W R R T { _ _ N J 7 q H *X%XZ.S.p._ 2 $ ",
"2 2 3 3 7 &XmXbXzX,X:XB 2 $ $ $ % O H pXU.=.: p u ' ' T { { [ } $.} %.*.u.J.F.y.( W W W %.I [ [ ' u e S 7 4 4 4 4 :XY.S.9.a X . ",
"F B g r *XcXnXlX>X-XB r w w w w w r D 3X5X1X| e 8 y p p a p a a a - & = h.F.u.9./ W R R R T [ _ : - w v r r r r &X>XZ.C.^ k O . ",
"-X&XV |.xXbXsX:X&XV j j j j j j j g D ,Xb.Y.b.a.X.....` u y y s u U =.x.b.u.u.e./ %.W R R T _ a p - m j b t b t ;XyXZ.k.U S > o ",
"-X&XD yXbXnX3X&Xb j j j j j j j j j b :X1Xz.Y.5XK.z.6.6.=.X.=.6.b.T.6Xf.y.u.r.w./ Q W R } { _ a y e C j b b b b ;X2XN.6.o.v 1 O ",
"-X&XXXbXsXbXaXL b j j j j j j j j j j |.@Xb.h.c.Y.0XZ.P.K.P.qXQ.^.F.u.r.g.u.e.w.;.Q $.W } T I a a p Z j t b b `.4XT.j.) [.f 4 * ",
"-X;XmX1X{.XXlX=Xj j j j b b j j j g j n +XiXb.v.d.z.k.M.V.V.k.f.s.r.e.p.r.y.y.e./ Q %.R } [ U a a p Z j j b L %X!.C.) !  Xr > o ",
"F lXvX Xr &XlXF r r r r w w w w w r r r [.1Xv.d.d.d.a.p.q.0.9.9.w.e.t.e.t.w.t.w.( ;.! $.} [ ' ` a j g f f B ,Xg.j.b.+.<. X7 O . ",
"{.nX%Xc 4 =X,X7 4 4 4 1 > > $ $ $ > 1 4 [.1Xv.v.8.6.6.6.6.6.a.6.:.:.,.:.,.e.:.:.,.;.;.%.$.} ' _ d f 1 4 4 &Xl.#XhX3.w k oXx X . ",
">XvXD 3 7 uX:X4 4 4 4 1 > O X X % 2 4 4  X1Xv.8.8.6.-.6.6.-.) ~ &.^ *.*.>.:.( ,.,.( ;.*.&.&...] ] f 4 4 A %XoXL 4XoX4 V OXm $ $ ",
"(.cXV r r -X{.r r r r r r 5 O $ c B g r XX1X1X8.7.X.4.X.X.X.....[ [ Y ..&.*.,.,.,.9.:./ *.%.X.{ _ (.v g ;XOXD r #X_.v V >XF r w ",
"V ZXb j b j b b j j j j j r > 7 F &XV j >X4X3X8.[.#.+.+.+.#...| ' ' ' | [ &.>.>.,.t.a.e.;.<.3.{ ' b V b V b j b %X&Xb b `.V b t ",
"b b t j b b t b j j (.t j r 4 7 F &XV j :XpX3X1X7.#.+.+.+.+.| | ' | | d ` ' X.6.6.r.r.s.t.2.-.=.{ O.*Xj j j j `.uXS j j j j b t ",
"t b b b t t b j j j t b j r 1 7 D &XV b >XpX3X1XoX@.(.@.N @.N O.k O.O.d k d a ..2.y.s.g.y.t.<.3.X.O.&Xj j j t (.V b j j j j b b ",
"j j j j (.t j j b b t b b r > 6 S &XV b >XsXsX1XoX).@.N N M G *X}.|.J N V V V N oXy.s.z.g.g.a.1.3.+.&Xb j j j j b b t b j t j j ",
"w r r r r r r r r t r r w 0 O % c B v r %XxXsX4XOX@.N Z G L v f f f r f r f r r G OXg.z.c.x.x.t.-.{ {.t r r r r r r r t r r r r ",
"* * 4 4 4 4 5 5 5 1 4 1 $ O X o $ 2 3 4 %XhXhX2XOX'.N A H 9 $ % 1 4 4 4 4 4 4 4 7 `.l.D.G.c.x.l.1.#.V 4 4 4 4 4 4 4 5 1 > > o > ",
"2 2 4 4 4 4 4 5 4 4 4 1 > $ $ $ $ $ 1 3 %XkXhXhX%X[.N L % X % 2 3 4 4 4 4 4 4 4 5 w 8.H.G.H.G.x.1.X.n 4 4 4 4 4 4 4 5 1 > o o . ",
"F B g r r r r r r r r r r r r w w r r r %XbXnXhX+X].D S O % c B j r r r t r r r r r  X5X7XT.G.x.l.#.V t r r r r r r r r r 5 o o ",
"-X&XV j j j j j j j j j j j j j j j g n yXnXnXhXOX(.L v > 6 F &XV j j j j j j j b j }.gXjXH.G.G.l.3.`.b j j j j j j j j j r > o ",
"-X&XV j j j j j j j j j g j j j j j b Z xXkXnXiXoX(.*Xr 1 0 F &XV j j j j j j j j j D hXjX5XG.I.l.3.`.b j j j j b j j j j r 1 * ",
"-X&XV j j j j j j j j j j j j j j j j :XkXnXnX<X[.'.J r 3 0 F &XV j j j j j j j j j &XgX7X6XG.I.2.{ `.b j j j j j j j j j r 1 * ",
"-X&XV j j j j j j j j j j j j j j j j :XkXnXkXOX[.}.F w > 6 F &XV b j j j j j j j j :XgXfXH.I.x.1.{ N b b g b j j j j b j w > o ",
"F n j r r r r r r r r r r w w w r f r $XkXbXhXOX[.}.f 7 $ % c B t r r r t r r r r r >XgX7XH.G.x.-._ Z r r t r r r t r r r 7 o . ",
"2 2 3 3 3 4 4 4 4 4 4 1 > $ $ $ O * * uXhXsX4XoX[.|.< O . X % 2 5 4 4 4 4 4 4 4 4 4 3X6XH.M.c.l.-._ m 4 4 4 4 4 4 4 4 1 > O o . ",
"$ > 1 3 4 4 4 4 4 4 3 1 > O X X % 6 m @X1X1X8.[.].|.6 $ $ $ $ > 1 4 4 4 4 4 4 4 4 B 1Xz.h.g.a.1.} s M 4 5 4 4 4 4 4 4 1 > $ $ $ ",
"r r r r r r r r r r r r r 7 O q Z {.[.4.7.7.[._.].'.m w w r w r r r r r r r r t `.[.~ ~ 6.,.*.&._ _ O.n r r r r r r r r r r w w ",
"j j j j j j b j j j V D }.#X+.O.7.5.' | @.#.#.).).).F b j j g j j j b b Z {.].#.T U U Y T =.{ _ _ _ ] V j j j j j j j j j j b t ",
"j j j j j j b j F CXCX%Xv.k.d.' U [ { _ | +.#.@.).].{.V j j b j j V XX%Xv.6.Y U Y T U u U I U I _ _ _ (.b j j j j j j j j j j j ",
"j j j j j j V .X,X4Xk.j.k.K.K.d.~ ; s s | | +.).'.].'.|.j j V Z _.+Xv.M.n.k.) U = u u ; ; ; : : : _ { +.b j j j j j j j j j j j ",
"j b j n &X>X<X6X/.W.k.j.n./.eXS.k.Y y y a d O.N @.'.{.tX|. X2X5XY.b.h.l.h.P.Z.g.} u = = ; : : u _ _ o.o.b b j b j j j j j t b j ",
"w t F >X6XJ.B.F.T.K.f.,.! M.qXW.9X) & 8 f k m C D {.>XlXI.S.Q.eXZ.k.a.R ! ^.W.qX8X~ = & = = ; u e ] h n t t r r r t r r r r r r ",
"$ 2 A _.{ _ ] 3.C.q.^ U U } -.6.v.+.m A tXP L L P =XuXj.0.y.f.k.k.k.T ; U *.h.Z.9Xz.- p p p p f v t m m 5 5 4 4 4 4 5 1 > $ o $ ",
". o * > , , > 0 _.(.i 7 < < 6 < < 6 i i * * , , , * x Z (.XX].@.OX} e p a d p d 7.].c 9 i % % 9 # o > > , , , , , , , * o . . . "
};
