/* XPM */
static char *result[] = {
/* columns rows colors chars-per-pixel */
"64 64 251 2 ",
"   c #0E0103",
".  c #0F0209",
"X  c #130104",
"o  c #1B0105",
"O  c #13010B",
"+  c #1D020B",
"@  c #150114",
"#  c #1B0214",
"$  c #16041A",
"%  c #1C041C",
"&  c #220206",
"*  c #2B0305",
"=  c #24020A",
"-  c #2B020B",
";  c #2C090E",
":  c #33050B",
">  c #340509",
",  c #3A050C",
"<  c #3C0B0C",
"1  c #230414",
"2  c #2B0312",
"3  c #23051B",
"4  c #2C051C",
"5  c #29091A",
"6  c #350716",
"7  c #3D0C12",
"8  c #330B1B",
"9  c #3C0D1B",
"0  c #291916",
"q  c #2D1C19",
"w  c #381616",
"e  c #301C18",
"r  c #36211D",
"t  c #3E221E",
"y  c #1A0426",
"u  c #2A0723",
"i  c #240B23",
"p  c #2B0B24",
"a  c #360B26",
"s  c #3D0B2D",
"d  c #3B2420",
"f  c #3B2925",
"g  c #450A0D",
"h  c #430C13",
"j  c #490D15",
"k  c #471317",
"l  c #4F1013",
"z  c #4B131B",
"x  c #51141C",
"c  c #541919",
"v  c #70151D",
"b  c #43221D",
"n  c #59211E",
"m  c #66221D",
"M  c #470B29",
"N  c #481726",
"B  c #561825",
"V  c #550834",
"C  c #4A1337",
"Z  c #581A37",
"A  c #6F092F",
"S  c #671727",
"D  c #671834",
"F  c #7A1D36",
"G  c #412622",
"H  c #492620",
"J  c #4C2B25",
"K  c #452E2A",
"L  c #4E2E28",
"P  c #5A2626",
"I  c #522E27",
"U  c #48312D",
"Y  c #52322D",
"T  c #4E2A39",
"R  c #5B2437",
"E  c #543534",
"W  c #5F3B34",
"Q  c #692928",
"!  c #742628",
"~  c #70312B",
"^  c #662938",
"/  c #762737",
"(  c #6D3136",
")  c #663D36",
"_  c #6B3C35",
"`  c #773837",
"'  c #6B443D",
"]  c #72473F",
"[  c #7C453D",
"{  c #39164B",
"}  c #3D235D",
"|  c #491648",
" . c #551A46",
".. c #4E1150",
"X. c #671742",
"o. c #730F52",
"O. c #542C4F",
"+. c #59325A",
"@. c #672946",
"#. c #752746",
"$. c #693248",
"%. c #753845",
"&. c #652A5A",
"*. c #6D3554",
"=. c #783558",
"-. c #461E64",
";. c #750D6E",
":. c #732F68",
">. c #66474A",
",. c #7C4949",
"<. c #71534E",
"1. c #79514A",
"2. c #764B55",
"3. c #795856",
"4. c #784364",
"5. c #801C1F",
"6. c #8A192E",
"7. c #971A2A",
"8. c #A21C2F",
"9. c #89263A",
"0. c #992738",
"q. c #8F3033",
"w. c #A52A34",
"e. c #AF3139",
"r. c #88423A",
"t. c #94473D",
"y. c #AE463B",
"u. c #8B0A50",
"i. c #AD0F5F",
"p. c #883745",
"a. c #8C344D",
"s. c #993C49",
"d. c #A5334D",
"f. c #B73946",
"g. c #8F0674",
"h. c #A90268",
"j. c #AD0074",
"k. c #B90275",
"l. c #87376B",
"z. c #B92565",
"x. c #C93B4C",
"c. c #C7007D",
"v. c #D01B7A",
"b. c #C13078",
"n. c #884948",
"m. c #97484A",
"M. c #99554C",
"N. c #8F4953",
"B. c #875656",
"V. c #975A56",
"C. c #9D5C53",
"Z. c #A8464A",
"A. c #A25A4D",
"S. c #B8544B",
"D. c #A54857",
"F. c #B84B53",
"G. c #A25C53",
"H. c #A8595A",
"J. c #BA5758",
"K. c #86625D",
"L. c #9B6358",
"P. c #A9654E",
"I. c #AB6455",
"U. c #A76659",
"Y. c #AB655B",
"T. c #B36A55",
"R. c #B46958",
"E. c #AB705C",
"W. c #BC735B",
"Q. c #B8755A",
"!. c #904A74",
"~. c #B65D65",
"^. c #AD5273",
"/. c #876660",
"(. c #8A6A64",
"). c #996562",
"_. c #8E716B",
"`. c #9B7467",
"'. c #A86962",
"]. c #B96969",
"[. c #AA7567",
"{. c #B57765",
"}. c #BC7B64",
"|. c #A56D73",
" X c #B96977",
".X c #CE4D53",
"XX c #C95859",
"oX c #CE6754",
"OX c #CB6559",
"+X c #D56A5A",
"@X c #C4795A",
"#X c #E76F5D",
"$X c #C95863",
"%X c #CF526E",
"&X c #E75B66",
"*X c #E44B70",
"=X c #EA5975",
"-X c #C96969",
";X c #DB6565",
":X c #C67866",
">X c #D87367",
",X c #C66872",
"<X c #D96A73",
"1X c #CB7874",
"2X c #D87975",
"3X c #E9646C",
"4X c #E77767",
"5X c #EA6574",
"6X c #F36E70",
"7X c #EB7873",
"8X c #8C8539",
"9X c #B7826D",
"0X c #BA8573",
"qX c #CB855C",
"wX c #D38E5F",
"eX c #C98766",
"rX c #D38E66",
"tX c #CE946E",
"yX c #D49464",
"uX c #D3936C",
"iX c #D89A69",
"pX c #C58873",
"aX c #D88678",
"sX c #CB9676",
"dX c #D69A75",
"fX c #F08C75",
"gX c #D4A069",
"hX c #DAA479",
"jX c #E9B27F",
"kX c #8F0081",
"lX c #B3008D",
"zX c #CE078A",
"xX c #D50089",
"cX c #E9368D",
"vX c #944C84",
"bX c #945394",
"nX c #AE5C83",
"mX c #BB6582",
"MX c #EB4E8C",
"NX c #D47982",
"BX c #E17B83",
"VX c #D29887",
"CX c #F29085",
"ZX c #D2A587",
"AX c #E3AC83",
"SX c #E7B689",
"DX c #E3BB94",
"FX c #E9C298",
"GX c #F1C39D",
"HX c #F0CCA2",
"JX c #E9D2A8",
/* pixels */
"_./.1.] ] ] ] ] ] ] ] ] ] ] ] ] ] ] ] ] ] ] ] ] ] ] ] W t f W ] ] ] ] ] ] ] ] ] ] ] ] ] ] ] ] ] ] ] ] ] ] ] ] ] ] ] ] ] ] W r 0 ",
"_./.1.] ] ] ] ] ] ] ] ] ] ] ] ] ] ] ] ] ] ] ] ] ] ] ] W b b ' ' ] ] ] ] ] ] ] ] ] ] ] ] ] ] ] ] ] ] ] ] ] ' ] ] ] ] ] ] ] ' b e ",
"_./.1.] ] ] ] ] ] ] ] ] ] ] ] ] ,.' ] ] ] ] ] ] ] ] ] ' H J ' ] ] ] ' ] ] ] ] ] ' [ ] ] ] ] ] ] ] ] ] ] ] ] ] ] ] ] ] ] ' ' b b ",
"_./.1.] ] ] ] ] ] ] ] ] ] ] ] ] ] ] ] ] ] ] ] ] ] ] ' ) I H _ ] ] ] ] ] ] ] ] ] ' [ ] ] ] ] ] ] ] ] ] ] ] ] ] ] ] ] ] ] ' ' J b ",
"_./.1.] ] ] ] ] ] ] ] ] ] ] ] ] ' ] ] ] ] ] ] ] ] ] ' ' J I _ ' ' ' ] ] ] ' ] ] ' ' ] ] ' <.] ] ] ] ' ' ] ] ' ] ] ' ] ' ] ' t 0 ",
"3.<.' ) ) ' ) ) ) ) ' ) W W W W W ) ) ) ) ) _ ) ' ) ' W J J W ' ' ' ' ' ' ' ' ' ' ' ' W ' W W W W W ' ' ' ' ' ' ' ' ' ' ' H r 0 ",
"f U L I I I I I I I L J G d t d t G J I I I I I n I I J b J I I H n I I I I b I I I I J t r t t t t L I b I I I H I I J f r e 0 ",
"f G J I I I I I I I L L G r q q f K L I I I J P L L I I I I I I I I I I I I I I I I I J t r q q f U L L I I I I I I I J b t t r ",
"W W ) _ ' ) ) ) ) ) ) ) ) L r d >.<.[ xXk.u.A o.A o.h.xX) zXu.u.S B M D u.k._ ' _ _ _ W W Y r f >.<.' ) ) ) ) ) ' ' ' ' I ' Y ' ",
"] ] ] ] ' ] ] ] ] ] ] ] ] ) f U 3.k.S z > & & + o o X ; 6 ; = & o & o o + = 6 o.' ] ] ] ] W b U 3.K.1.] ,._ ,.] ' ' ] [ ] ] ' ' ",
"] ] ] ] ] ] ] ] ] ] ] ] ' ' P h.M , - - - = o o X X X X   X X X X o X X o o X O 2 u.[ ' ' _ J E 3.K.1.] ' ] ] ] ] ] ] ' ] ] ] ] ",
"] ] ] ] [ ] ` [ ] ] ] ] ] ` u.7 : : - - & o o X X X X X   X X   X X X X X X o O o X M k.[ ' J E 3.(.1.] ] ] ] ] ] ] [ ' ] ] ] ] ",
"] ' ] ` #.B B D h.r.,.] c.c * 2 2 - - - & X + o o X X o X X     X X       X     O . . 5 h.) G U 3.(.3.] >.] ] ,._ _ ' ] ] ' [ ' ",
"W ) c.B h , ; : g / D./ k > : ; = - - = & & + + & X X & o X   X   X   X X       . . $ # 6 k.n zXi.zX' ) ) ) h.A k N N h.' W I ' ",
"t J c j 7 : : * g ` Q , , : - - * - - = * = & & o + & + o X   X X X X X       X @ $ $ $ = j s.~.=.o.I I h.N 2 - = - - - , o.b t ",
"Y u.j h h : : , l ^ c g , > > * * * * - - - - = & & & o & o X X X X X X X X X X @ % % @ O - x #.@.Z X.V = = = = = = = = = - M v.",
"3.c h h h 7 , g Q ~ c c g > > > * * * > - - - = - = + o + + & o X o X X X X X O @ % # . . o : M V M 1 o & * & & = & = + + = 4 Z ",
"b.7 < 6 g g l S ~ ~ P n x < , 7 < < , 7 < 7 ; - & = - = & & & = = + # o O X X O # @ $ .   o * h B Z 4 + + + o & = = = = % 5 4 @.",
"m., , 6 g A z.m.` ~ _ Q n c l P l l k k h 7 : ; 6 6 w 6 ; = 2 - 1 1 3 1 + + O + # @ O O O X * x / @.M 2 - 1 & o + + & + # u a X.",
"H.h , , 6.` ,.z.q.` ` ( ( Q c Q c P P x k z z 7 k 9 N 8 8 ; 5 1 1 3 5 3 # @ O @ % $ X X X o = x D D Z j.c.h.h.V = = - - 3 4 s xX",
"1Xn l l %X] ' i.! Q m ~ ` Q n n z Q P c c P J k 9 k N 8 8 5 8 3 5 i % 5 # # # $ y % @ X X o o 7 B B h.,.] ] ] [ h.V - 2 4 u M w ",
"MXm.! q.L.' _ 9.c c c Q ( P x c x c z z k B B a 9 9 a 7 8 5 5 p p 5 5 i p 3 % y y i % @ X X o - u.( _ _ ) ) ) ) W ` V : 4 4 M k ",
"W CXc.! I I P S l g g P B c l < x c k k h k N 9 w 9 a 9 9 p i i p p i a p i 3 y y i $ O O X X o o.G J I I I I I J I P ..4 u Z w ",
"d H I I I I v.c l g g x k h w < c c g l 6 7 h 9 9 8 p k 9 a a u p p i p p i i i i i 3 O O X X + A I J I I I I I I I J zXa u &.d ",
") ) ) ) ) ) _ S g g g k g < < g ~ c l g 7 h k 9 h w 9 N N s p p 5 p p p p p i p 3 3 @ O X X X o V ,.] ) ) ) ) ' ) ) ' ) ;.y -.W ",
"' ] ] ] ] ] [ S g g l B l < k c M.Q n n B c B z c N k S ( s a 4 5 a p p p a u u u # @ O   O O @ V K.1.] ] ] ] ] ] ] ] ] ` g.lX>.",
"] ] ] ] ] ] r./ k l Q r.Q m ! r.:Xt.r.[ _ ` ` ` ( ~ P ` L.R M 8 a 8 u 5 4 4 4 4 1 1 # O .   O $ s K.1.] ] ] ] ] ] ] ] ] ] ] ,.' ",
"] ] ] ] ] ] ] 9.c Q t.Q.P.P.P.W.yX:X}.Q.Q.Q.R.{.E.P.M.T.tXE.C.V.B.` R 9 6 6 4 1 1 # + # O   O @ { 3.1.] ] ] ] ] ] ] ] ] ] ] ' ,.",
"] ] ,.' ] ] ' xXm r.9XDXDXSXZXhXhXuXuXuXaXuXuXdXdXhXhXhXdXdXhXgXhXtXQ.n.N 8 a 2 # # # O . O O @ { B.2.,.] ] ] ] ] ] ] ] ] ] ] ] ",
"W W ) ) ) ) ' ` ! A.VXZXZXVXVXVXdXuXrXrXrXrXuXtXtXpX0X9X9XpXVXsXhXgXeXQ.n.B s 8 3 % 3 $ X O . $ ..,.' ) ) ) ) ) ' ) ) ) W W W W ",
"d G J I I I I I d.A.|.(.<.>.>.B.'.9XeXqXeXeX}.E.V.2.2.*.>.2.2.3.`.9XtXeXP.` J N 8 1 i % O O @ y ;.K J L I I I I J I L I f d t t ",
"K K L I I I I I v.A.[.).3.4.2.3.B.L.Q.Q.Q.{.E.M.B.B.3.B.2.3.3.B.3.B.L.}.Y.t.^ R s 1 1 % @ @ $ y ..G J I I I I I I I L J G r q 0 ",
"3.<.' ) ) ) ) ) ( G.1X'.V.B.B.B.B.V.U.Q.9XP.L.L.L.V.B.B.V.L.L.U.E.E.U.P.I.m.` ^ N 5 % 5 % # % y ;.W ) ) ' ) ) ) ) ) ) ) ) Y r 0 ",
"_.K.1.] ] ] ] ] [ ].{.C.).3.<.3.n.B.C.tXwXqXP.C.V.B.n.3./.L.`.L.G.I.R.R.I.A.p.^ Z 4 1 4 p 5 i y _ ,.,.' ] ] ] ] ] ] ] ] ] W b q ",
"_.K.1.] ] ] ] ] [ ~.Y.C.).+.T /.3.,.L.DXjXqXP.P.V.n.2.E O.3.L.V.G.P.R.W.R.P.n.( Z N 2 6 N T | { [ ] ' ] ] ] ] ] ] ] ] ] ' W J t ",
"_.K.1.] ] ] ] ] ] cXpXsX0XK.B.).V.U.hXHXFXgXqXT.I.C.).B.B.[.U.U.W.@X@X:XoXT.M.[ ^ N 6 z ^ $.*.+.] ] ] ' ] ] ] ] ] ] ] ] ] ' J b ",
"_.(.1.] ] ] ] ] ] 8XhXgX{.L.C.M.E.sXGXHXDXhXgXwXeXW.Y.I.H.U.E.:XwXrXrX@X@XT.A.n.` N 9 x ( $.*.+.] ] ] ] ] ] ,.' ] ' ] ' ] ) t q ",
"3.<.' ' ' ' ) ) ' 1.hXhXpX{.Q.eXhXDXHXJXFXjXgXiXyXuXeX}.Q.qXeXrXyXyXyXqX@XS.A.n.%.Z 9 R $.$.$.+._ ) ) ) ) ) ) ) ' _ ' ' ) Y r 0 ",
"K U K I I I I I I cXhXtXtXtXsXAXFXJXJXJXHXjXhXgXiXiXiXyXwXwXwXwXyXyXwX@X@XR.M.n.%.T N ^ $.$.+.g.t G J I I I I I n L L I f r 0 0 ",
"r t J I I I I Y P BXuXtXtXdXZXDXGXDXDXFXFXjXFXjXiXiXiXiXyXyXwXqXwX@X@X@XW.G.m.n.%.R C ^ ( +.+.q d K L I I I I I L L L J G t t t ",
"W ' ' ' W ' ' W _ BXaXeXeXtXdXdX9X1X1XpX}.tXAXjXiXwXiXyXyXrXqX@X@X@X@XT.Y.G.M.,.$.@.^ ^ $.+.g.K ' <.' ' ' ' ~ ' ' ' ' ' Y ' Y ' ",
"] ' ] ] ' ' ] ] ,.BXaXqXeXtXdXQ.m.U.~.H.M.M.C.T.Q.wXyXyXrXqXqXQ.@XR.R.P.I.G.m.n.%.$.X.O.+.;.J U 3.(.] ] ' ] ' ] ' ' ] ] ] ] ] ' ",
"] ] ] ] ] ] ] ] ] MXeX:XtXgXZXZX9XU.L.V.B.B.n.C.:XiXiXgXyXwXqXT.R.R.I.I.G.C.m.n.=.@.O.O.&.) J E 3._.1.] ' [ ] ] ' ] ] ] ] ] ] ] ",
"] ] ] ] ] ] ] ] ,.,.%XW.tXhXdX0X`.K.B.B.V.L.'.9XsXgXiXiXiXwX@XW.R.R.I.I.U.P.n.2.:.;.:.g.' ' J E 3.3.[ ] ' ' ] ] [ ] ] ] ] ] ] ] ",
"] [ ] ] ] ' ' ] ] ] r.%XeX{.[.9X'.'.'.I.L.U.E.[.[.{.{.9XqX@X@XQ.R.R.I.I.I.A.N.4.lX' ] ] ] ) f U 3.3.3.1.' ] ] ' ] ' ] ' ] ] ] ] ",
"W Y ' ' _ ' ~ ' ) ' ' cX9XL.L.'.U.H.'.'.Y.Y.Y.'.).B.B.L.R.W.W.Q.R.R.R.R.G.M.2.l.) ' ) ) ) L r f <.<.' ' ' ' ' W ' ' ' ' W W W W ",
"r G J I I I J I I I J Q 1XE.U.[.[.m.a.n.a.N.N.N.n.n.n.V.U.R.R.R.R.T.R.I.C.n.4.L J I I J t r q q f L L L I I I I H I I J b t r t ",
"K K J I I I I I I L L Q ].9X9XpX1X].H.D.H.H.H.H.H.'.U.I.G.I.I.I.T.G.G.M.n.2.zXL I I I J f t t t r f J I I I I I I I I J G r 0 0 ",
"3.<.' ' ' ' ' ' ~ ' ' ~ R.Q.}.Q.W.H.U.H.U.H.H.Y.Y.Y.Y.R.Y.I.P.P.C.V.n.%.$.O._ ) ) _ ' ) ) W W W W W ' ' _ ) ' ) _ ) ' W W I r 0 ",
"_./.1.' ] ] ' ' ' ' ] [ ~.Q.}.Q.Y.G.C.M.M.V.V.M.M.A.G.G.G.C.M.N.n.q.#.@. .-.' ] ' ] ] ] ] ] ] ] ] ] ] ' ] ] ' ] ] ] ] ] ] W H e ",
"_./.1.] ] ] ] ' ] ] ] [ %XH.E.}.@XQ.E.I.U.U.V.V.V.C.m.m.N.a.p.` ( ^ X. .| | lX] ] ] ] ] ] ] ] ] ] ] ] ] ] ] ] ] ] ] ] ] ] W J t ",
"_./.1.] ] ] ] ] ] ] ] [ MX$XJ.'.{.:X{.].].].].].D.N.a.p.p.` / ^ R  .C | | C | xX] ] ] ] ] ] ] ] ] ] ] ] ] ] ] ] ] ] ] ] ] ' J t ",
"_./.] ] ] ] ' ' ' ' ] [ %X5X<X~.~.m.H.H.H.H.D.m.a.p.q.%.( ! D R R C C C C V V  .[ ] ] ] >.] ] ] ] ] ' ' ] ] ' ] ' ' ] ] ] ' t e ",
"3.<.' ' ' ' ' ' ' ' ' q.5X&X&X<X$Xa.0.s.Z.D.D.D.s.Z.m.q./ / ^ B B B V M x x S Z o.k._ ) ) W W W W W ' ' W ' ' _ ' ' ' ' W I e 0 ",
"f K I I J I I I n L Q 5X&X.X&X5X$X7.7.x..X$XOX@XoXoXS.y.s.q./ m l v v v S S F 6.F 9.#.xXG f r d r H J I I I I I H I I J H r e 0 ",
"f f J I I I I I I Q =X&X&Xx..X5X$X9.8..X5X4XaXfXfX#X+X.XF.d.0.6.5.5.A F / F D v 7.0.p.#.j.b q q r f J I I I I I I I I J G d r r ",
"W W W ' ) ) ) ' ' *X3X3Xx.8.x.&X.X6.8.*X&X6XfXCXfXfX#X#XXXe.Z.e.8.7.9.9.D S S 6.8.w.0.p...-.lXt I W ) ) W ' _ ) ' ) _ W W W W W ",
"] ] ] ] ] ] ] [ *X+X3X5XF.6.f.5X%X0.8.x.5X6XfXfXCXfX4Xx.e..XXXXX.XF.s.F S S 5.8.e.8.q.#. .| } kX' ] ] ] ] ] ] ] ] ] ] ] ] ] ] ] ",
"] ] ] ] ] ] n.=X4X<XOXBX.X5.e.=X$X0.7.x.3X6X7XfXfX;Xy.y..XoXOXZ.F.-XH.p.A 6.8.e.x.0.p.F X.| } -.) ] ] ] ] ] ] ] ] ] ] ] ] ] ] ] ",
"] ] ' <.q.5XfX>XOX>XZ.2XZ.5.f.&X.X0.7.x.&X6X6X.Xf.w.w.oX+X:XZ.q.<XZ.m.|.d.8.e.x.*Xd.6.F F X. .| g.] ] ] ] ] ] ] ' ] ] ] ] ] ] ] ",
"] ] ] r.4X+X>X+XXX>XS.1Xq.w.oX>X-XXXJ.$X;X<X<XJ.Z.s.F.>XBX,Xq.-XR.m.^.N.p.d..X.X.Xe.7.6.9.u.9.X.T ;._ ,.] ] ] ] ] ] ] ] ] ] ] ] ",
"W ) ` 3X6X+XoX+XoX+XS.7Xw.S.eX>X-X-X1X,X-X,X,X X].~.~.1XVX X~.NXA. X!.@.#.a.J.=X%Xf.d.d.f.x.x.z.=.O.-.E _ ' ) ) ' W ' ' ) W W W ",
"t b ! #X#XwXS.>XoXoXS.-XJ.XX+X:X,X,X-X X X X X|. XnX|.!.!.2.=.!.$.!.-.| &.!.vXnXvX^.^.l.d.F.%X^.l.+.-.;.I I I I H I I H H d t d ",
"0 w m 6X#X+X.X3X+X.X$X$X<X<X,X,X,X,X X XnXNXmXmXnXnXnX^.!.=.=.:.&.:.:.:.vXbXbXbXbXbXvXl.vXvXvXl.:.&.} ;.H H H H H H H t e 0 0 0 "
};
