/* XPM */
static char *result[] = {
/* columns rows colors chars-per-pixel */
"64 64 243 2 ",
"   c #291916",
".  c #2D1C19",
"X  c #301C18",
"o  c #36211D",
"O  c #342622",
"+  c #3B2420",
"@  c #372A24",
"#  c #3B2924",
"$  c #40221D",
"%  c #412622",
"&  c #482620",
"*  c #442E26",
"=  c #4C2B25",
"-  c #452E2A",
";  c #4E2E28",
":  c #522E27",
">  c #582D27",
",  c #4A3126",
"<  c #46322B",
"1  c #4C342C",
"2  c #56352B",
"3  c #53332C",
"4  c #5B342B",
"5  c #523A2E",
"6  c #492832",
"7  c #562537",
"8  c #4D3634",
"9  c #473D34",
"0  c #4A3D34",
"q  c #463E3B",
"w  c #533632",
"e  c #533C34",
"r  c #5E3B34",
"t  c #573F38",
"y  c #66362C",
"u  c #673A35",
"i  c #663D36",
"p  c #6B3B33",
"a  c #773B31",
"s  c #494039",
"d  c #4B423D",
"f  c #5C4235",
"g  c #53453B",
"h  c #5C443A",
"j  c #59483B",
"k  c #644233",
"l  c #6B4434",
"z  c #6F4835",
"x  c #64443B",
"c  c #6B443C",
"v  c #654A3E",
"b  c #6C493E",
"n  c #724234",
"m  c #794637",
"M  c #734A35",
"N  c #72473F",
"B  c #7B453A",
"V  c #724A3C",
"C  c #7B4B3C",
"Z  c #75513D",
"A  c #7D513E",
"S  c #751A4B",
"D  c #713248",
"F  c #4B4542",
"G  c #4A4945",
"H  c #4E4945",
"J  c #524642",
"K  c #5B4543",
"L  c #544A43",
"P  c #5C4B42",
"I  c #524D49",
"U  c #5A5145",
"Y  c #55524D",
"T  c #5B544C",
"R  c #5B5651",
"E  c #555954",
"W  c #5D5954",
"Q  c #654741",
"!  c #6C4743",
"~  c #634B42",
"^  c #6D4C42",
"/  c #6E4B49",
"(  c #734C42",
")  c #734946",
"_  c #7B4C43",
"`  c #7D4D4A",
"'  c #6D5245",
"]  c #685649",
"[  c #745146",
"{  c #7B5345",
"}  c #72534C",
"|  c #7A524A",
" . c #775A4A",
".. c #7D5B4C",
"X. c #714D51",
"o. c #645D54",
"O. c #645E58",
"+. c #755B55",
"@. c #7A5B53",
"#. c #5E625D",
"$. c #7C634F",
"%. c #6A6155",
"&. c #666459",
"*. c #65645C",
"=. c #796656",
"-. c #736A5C",
";. c #6A6965",
":. c #6D6C64",
">. c #736C63",
",. c #7C6D66",
"<. c #7C7364",
"1. c #757469",
"2. c #75766B",
"3. c #823F39",
"4. c #86493D",
"5. c #80513F",
"6. c #8C0E5A",
"7. c #852C59",
"8. c #990C67",
"9. c #B00772",
"0. c #953864",
"q. c #B23371",
"w. c #D31B7F",
"e. c #8D4741",
"r. c #844C42",
"t. c #8B4D44",
"y. c #834D4A",
"u. c #904D4F",
"i. c #825444",
"p. c #8B5444",
"a. c #855A46",
"s. c #82534A",
"d. c #895748",
"f. c #845A4A",
"g. c #8C5C4A",
"h. c #925649",
"j. c #97584C",
"k. c #935C4C",
"l. c #885D52",
"z. c #985D53",
"x. c #A15D52",
"c. c #86624D",
"v. c #8C634E",
"b. c #93624E",
"n. c #98644F",
"m. c #8D6452",
"M. c #886957",
"N. c #946351",
"B. c #9C6554",
"V. c #936B55",
"C. c #9C6B56",
"Z. c #97665B",
"A. c #9C6B5B",
"S. c #8E765E",
"D. c #97755B",
"F. c #9C745C",
"G. c #A56757",
"H. c #A16957",
"J. c #A36C5B",
"K. c #A5735D",
"L. c #A77A5E",
"P. c #985165",
"I. c #A94E71",
"U. c #876660",
"Y. c #99666F",
"T. c #877867",
"R. c #8E716B",
"E. c #827A6B",
"W. c #987563",
"Q. c #9D7B63",
"!. c #877B75",
"~. c #A36B65",
"^. c #A26C64",
"/. c #A37263",
"(. c #AA7363",
"). c #A47B63",
"_. c #AD7C61",
"`. c #A7746A",
"'. c #A57E6B",
"]. c #AD7C6B",
"[. c #B37B66",
"{. c #B37D6C",
"}. c #A97B75",
"|. c #B17D73",
" X c #C14479",
".X c #8C806D",
"XX c #9B8369",
"oX c #898476",
"OX c #968B78",
"+X c #A48363",
"@X c #AE8364",
"#X c #AB836A",
"$X c #A9896C",
"%X c #B18667",
"&X c #B2856D",
"*X c #B38A6D",
"=X c #B4936D",
"-X c #AC8572",
";X c #A48A71",
":X c #AB8B73",
">X c #BD8574",
",X c #B48B74",
"<X c #B88876",
"1X c #A59279",
"2X c #B89675",
"3X c #BB937C",
"4X c #BCA07D",
"5X c #C58976",
"6X c #C3987B",
"7X c #C8A67D",
"8X c #D00789",
"9X c #D93184",
"0X c #EA35A7",
"qX c #B65287",
"wX c #9F778A",
"eX c #B67190",
"rX c #D54E99",
"tX c #E54C9D",
"yX c #CB6F92",
"uX c #E8659D",
"iX c #D252A2",
"pX c #E748A6",
"aX c #F84BB6",
"sX c #D96EA9",
"dX c #F46FA9",
"fX c #968E83",
"gX c #B18F88",
"hX c #AFA793",
"jX c #C79684",
"kX c #C59D84",
"lX c #D68D95",
"zX c #E1969E",
"xX c #CAA487",
"cX c #D2AA8C",
"vX c #D8AD89",
"bX c #D7B58C",
"nX c #D7AD93",
"mX c #DBB293",
"MX c #E4B994",
"NX c #CC8DA5",
"BX c #E493A5",
"VX c #D5AFA5",
"CX c #E2A5A1",
/* pixels */
"R.U.| N N N N N N N N N N N N N N N N N N N N N N N N r # gXeXiXV N ( N N N N N N N N N N N N N N N N N N N N N N N N N N r o   ",
"R.U.| N N N N N N N N N N N N N N N N N N N N N N N _ 0XhXhXfXOXOXeX0XV N ( N N N ( N N N N N N N N N N N N N N N N N N N u % X ",
"R.U.| N N N N N N N N N N N N N N N N ( N N N N Z A ( NXhXOXOXOXOXOXE.eX( ) N N ! N N ( N N N N ( N N N N N N N N N N N N i ; $ ",
"R.U.| N N N N N N N N N N N N N N N N N N N N N ( sXhXfXOXoX<.<.2.1X2.:.!.eXsXpXpXN N ! N N N N N N N N N N N N N N N N N i = $ ",
"R.U.| ( N N ) N N N N ( N N N N c N N N ( B N N gXgX.X.X<.<.-.&.-.OX<.#.;.1.2.fXoXgX! D N N N V N N ( N N N ) N N N N N N u + X ",
"+.X.c i i i i i i u i i i r r u u i i i i iXyX1X1XOXT.-.-.-.%.E O.1.;.E W #.;.1.oXoXfXeXi r r f r u i i i i i u i i i i u 1 o   ",
"# - ; : : : : : : : : = % + o + + % ; : }..XE.<.E..X-.%.%.&.W Y o.O.E E E *.:.!.oXoXoXfXNX# o @ o % = : : : : : : : : = % o .   ",
"# % = : : : : : : : : = % o . . # - pX1XR.E.-.&.o.-.-.%.U W U H I I I E W ,.1.1.<.<.oX2.fXNX. . # - ; : : : : : : : : = % + + + ",
"r u i i i i i i i i i i u 1 o # ] aX;X.X-.%.W T Y W -.%.R Y I G F F F R :.O.O.=.:.>.>.>.>.2.sX@ ~ } c i i i l i i i i i u r r r ",
"N N N N N N N ) N ) N N N i % < =.VX;X.X-.o.E H H j %.%.T U U G F F F O.R ] O.O.o.O.O.;.;.>.2.iX+.U.| N N N N N N ( N N N N N N ",
"N N N N B ( N N N N N N N i = w aXhX$X.X=.o.U Y G H T %.U j j g F q I I I T Y I I I W O.;.;.:.1.yXU.{ N ) N N N N N N N N N N N ",
"N N N N N N N N N N N N ( i = 3 MX4XXX<.%.T U U H g j %.T d s s s q F F I G F F F F I Y R ;.:.:.2.iX` N N N N N N N N N N N N N ",
"N c ( N N N N ( N N N N N r % BXbX1X<.=.o.U U H H H L ] j j s s e s 9 q d d d q q F I Y E W #.;.;.wX/ ! N N N N N ) N N N N N N ",
"r i i i i i i p i i i i u 3 o nX7XXX$.$.%.] T U g g g j j g s s 9 9 9 q q q q d q q q I Y R R O.;.2.wXu i i i i i i i i i r r r ",
"o % = : : : : : : : : = % o BXcX=XXXS.S.$. .] j g g d g j g 5 9 9 9 9 q q q q d F d d F I Y R O.#.;.;.iX> : : : : : : = % + o + ",
"- - ; : : : : : : : 3 , % dXbXbX4X+XS.$.$. .] ~ U g j g g f s 0 9 9 0 e s g K K J J J J J I Y R #.;.;.qX: : : : : : : = % o .   ",
"+.} c i i i i i i i i i u MX7XbX7X=XV.c.c.$. . . . .Z ' b h g 0 9 9 t ~ [ [ [ [ ^ ~ Q L J L I Y R &.&.Y.i u i i i i i i u 3 o   ",
"R.U.` N ( N N N N N ( N uXmX7X7X7X7X+XC.v.c.c.V.N.v.v.v.c.{ ^ h e f ^ | f...| { [ ' ~ Q K g P L T &.*.2.N ( ) N N N N N N i % . ",
"R.U.| N N N N N N N N N lXbX=X=X6X+XD.+XV.v.V.V.V.V.v.v.a.f.{ { { { f.f...| | { [ [ ^ v Q g L L L &.&.:.N N N N N N N N N i = $ ",
"R.U.| ( N N ( N N N N N xX7X=X+X+XV.+XD.D.V.D.V.V.V.v.g.c.a.a.a.f.{ | ..f.| { { [ ( ^ ~ Q P j L j T T :.N N N N N N N N N i = $ ",
"R.U.` ( N N N N N N N N lX7X=XD.D.L.+XV.D.K.F.C.C.V.N.c.a.a.f.f.i.{ [ { { { [ [ ( ( ^ ^ b h L L L U U -.b N N N N N N N N u + X ",
"+.X.c i i u i u i l i i tX=XXXD.V.*X+XL.+XL.L.L.K.F.C.g.a.a.a.s.f.i.f.{ { { { ( ( ( ( ^ b ~ j P g H Y m.i i l i i i i i u 1 o   ",
"# < : : : : : : : : : : o 2XXXm.D.=X%X#X*X&X%X*X].(.J.N.g.g.g.f.f.g.g.g.f.s.{ ( _ ( ( ^ b b ~ v L g j  X: : : : : : : ; % o .   ",
"+ % = : : : : : : : : , $ yX=X+X%X=X*X,X2X3X2X,X,X].K.C.b.b.k.g.k.N.B.N.g.d.i.{ { V ( ^ ( ^ ' ' ] s ] 1 : : : : : : : ; % + o + ",
"i u i i p i i i i i l i i tX2X2X7X6X2X2X3X3X3X<X<X&X(.(.B.N.B.k.b.B.B.B.N.g.s.{ { _ [ V ( ^ ' } } j P.i i i i l i i i i i u r r ",
"^ N N ( N N N N N N N ( N r lXvXvXvX7X2X:X:X,X,X,X*X{.J.B.B.B.B.B.C.B.B.B.g.i.s.{ { ( ( ( ' ' ' } Q 9XB N N ) N N N N N N N N N ",
"N N N N N N N N N N N N N u dXMXmXvX<XM.$.@.M.W.W.Z.m.f.s.N.C.H.J.(.J.z.z.g.s.` { _ _ ( ( ^ ' ' } ]  Xe.N N N N N N N N N N N N ",
"N N N N N N N N N N N N V u = MXbX,X..~ J g e e e e f r l d.B.B.J.J.z.g.d.d.s.i.( ^ V ( ( ( ( } } h P.N N N N N N N N N N N N N ",
"N N N ( N N ) N ! N N N N u $ mXxXD.$.......{ ^ h e r h r i.B.B.J.d._ _ ( V b c h w 1 g e h v ' ' g P.N N N N N N N N N N c N N ",
"r r i i i i i u i u i i r 3 rXcXxX).].#X)././.J.C.n.b.d.A g.H.B.B.a.l x i , < # # @ O O o # < ' ' j q.p i i i i i i i i i r r i ",
"+ % = : : : : : : : : = + o BXmX6X:X@XF.m.m.l.f.i.a.B.B.B.H.H.B.k.i.l u 4 * o o . . O + # < f ' ' v w.: : : : : : : : = % + o + ",
"- - ; : : : : : : : : : % + NX3XQ.W.V.M.M.M.@.} x k z i.k.H.J.H.d.i.c l i 2 < 1 < < 1 0 e f h f j ' w.: : : : : : : : ; % o .   ",
"+.} c u i i i u i u u i r r ,.=.:X-X'.W.M.R.,.K J ~ ~ c _ B.J.A.d.C n i r w 8 8 8 t g g h v ~ j # w i i i i i p l i u i i 3 o   ",
"R.U.| N N N N N N N ) N ! ) eXgXnXgX-XW.Z.Y.R.K K X.) | s.c d.N.{ u , e ^ x x K 8 3 8 6 w ^ [  .j r N ( N N N N N ( N N N u % . ",
"R.U.| ) N N N N N N N N N N NXxXcX3X-X-X-XW.M...} | { m./.m.(.&XB.n 3 ! ) Q / / / ! Q x x ~ ^ } ' k w.N N N N N N N ! N N i = o ",
"R.U.{ N N N N N N N N N N N lXxXnXxX,X-X-X'.W.Z.l.f.l.K.`.Z.(.|.B.m 4 c ) ! / X.X.X./ ! ! ^ ^ [ v b q.N N N N N N N N N N i : $ ",
"R.U.| ( _ N N ) N ( ! N ( ( BX,XmXcXxX3X<X-X`./.^.Z.~.`.Z.l.A.J.A.C ; 3 ! ) ` X./ / / ! ^ ^ ( [ j Z q.c N N ) N N N N N N r + X ",
"+.} c i i i u i p l i u r u zX,XcXnXvXgX<X`././.^.W.`.`.Z.l.B.(.J.t.3 3 N y.s.` ` D ( ! ( ( / [ j ' q.i u i i i i i i i u 3 o   ",
"- - ; : : : : : : : : = % + CXxX,XmXcXjX|.|.(.~.~.~.~.~.A.H.~.|.(.h.u > ! y.y.y.y.r._ _ ) N ( v c ' 0.3 : : : : : : : = % o .   ",
"+ + = : : : : : : : : = & X CXnX3XgXkX<X|.|.~.~.P.Z.z.Z.j.G.[.5X(.z._ r u ) ` y.y.y.y._ _ ( [ c b Z 0.> : : : : : : : : % + + o ",
"r u i i u u i i i i i p i 3 zXnXcX<X'./.`.^.Y.Z.z.z.m.d.p.H.5X5X(.z.r.i : u p ` ` y.y.) ! c x c ( v 7.i i p i i i i i p i r r r ",
"! ( N N ( N N ) N N ) N N r lXnXcXxX,X^.l.l.f.| { r.y.4.z.|.6X5XJ.j.r.p > 4 u u i i i p i n N ) b x 7.N ( N N N N N N N N N N N ",
"N N N N N N N N N N N N N i uXcXxXjX5X>X(.~.A.z.h.p.4.p.5X5XjX{.J.h.e.N p u n 4.r.e.t.t.i.y.C N c e 8.b N N N N ) N N N N N N N ",
"N N N N N N N N N N N N N i tXxXkXjX<X{.[.(.H.z.k.h.p.H.{.G.[.{.G.z.p.e.t.p B p.h.h.h.t.t.r.( N x w 8XN N N N N N N N N N N N N ",
"N N N ) N N N N ) N N N N i 0XxXkX3X<X|.(.(.H.z.k.p.h.B.H.a h.[.J.z.B 4.C p 4.p.h.h.p.p.p.4.( N h S [ ^ ( ) N N N N N N N N N N ",
"r u i i u i i i p i i i i w X jXjX3X<X&X{.(.J.z.5.i.b.H.n.k.k.H.B.4.p y p n C 4.h.h.h.p.i.{ ( x 0 9.! i p i i i i i i i i r r r ",
"o % = : : : : : : : : = % X X yX3X3X,X&X[.(.N.N l A k.N.N.b.p.d.C y 4 4 u p N C p.h.p.p.4.( b t 3 - ; : : : : : : : : = % o o o ",
"- - : : : : : : : : : = % + # o 3X3X,X&X_.C.N V i.a.i.A i.i.n m l 4 ; = : 4 4 u M p.h.p._ N k 1 7 % = : : : : : : : : : % o . . ",
"+.X.! x i u i i i i i i u i r r eX2X*X,XL.n.M a.A.K.J.B.j.4.4.4.4.n a > y 4 2 : 4 5.p.5.N f ; - 9.u u i u i p i i i u i u 3 o   ",
"R.M.` N N N ) N N N N N N N N N rX-X#X&X@XH.i.A b.h.j.k.j.x.G.x.j.4.4.4.m m M l y C p.V f 8 3 6 ) ! ) ! N N ( N N ) N N N i $ . ",
"R.U.| N N N N N N N N N N N N N N ,XQ.'.-X).b.g.A.B.p.j.j.0.3.4.3.3.a y y y y M M 5.A k 1 1 - 6.N ) N N N N N N N N N N N i = o ",
"R.U.[ N N N N N N N N N N N N N N gXQ.W.Q.L.N.n.L._.J.B.G.x.e.3.3.a y y > > y m 5.5.l 1 , 5 7 N N n N N N N N N N N N N N i : $ ",
"R.U.| N N N ( N N N N N N c N N ( 0X;XQ.Q.L.C.C.L._._.G.x.j.j.j.4.4.3.a y y M M 5.M f * ; < 9.N N N ( N N ( ) N N N N N N r % X ",
"+.} ! i i i i i k i i i i r u r r u qX#X'.+XL.K._._._._.G.j.4.4.4.4.4.a n M M M M k s , w 7 r r r u i i u i i i i i i i i 3 o   ",
"- - ; : : : : : : : : = % + o + + % ; -X+X#X@X@X@X_._.G.x.h.C n n m 4.m M M z k k k 5 5 < 8.+ + o % ; : : : : : : : : = % o .   ",
"+ % = : : : : : : : : ; % o . X # - 1 8X'.#X#X#X%X@X_.G.H.n.5.5.M m 5.m M z l k k f 5 , 7 X . . X & = : : : : : : : : ; % + + o ",
"r u u u l p i i i i i u i 1 o # ~ X.! i qXW.).*X*X%X_.K.K.J.n.k.5.5.5.C M z k k f 1 1 1 9.3 o o 3 u i i i i i p i i i i i u r r ",
"N N ) N ( N N N N ) N N N u % < +.U.| ( _ I.F.#X*X%X@XL.K.H.n.b.n.n.5.C M z k f 5 , < S ( u % + r N N N _ N ( N N N N N N N N N ",
"N N N N ! N N N N N N N N i = w +.U.` N ) N P.S.*X*X+XK.K.B.b.b.n.5.5.Z M l f 5 < * 7 N N u = = i N N N N N N N N N N N N N N N ",
"N N N N N N N N N N N N N i = w +.M.| N N N ( I.).%XL.L.C.B.b.b.n.g.5.A V k 5 , * S N N N u = = i N N N N N N N N N N N N N N N ",
"N N N N ) N N N N N ( ( N u + < +.U.| ( N N N ) q.W.+XL.C.b.k.b.n.v.A Z v f < # % 8X_ ) N u % % r ! N N ( N N N N N N N N N N N ",
"r i i i i i u i u i i i u 1 + # ~ } ! i i p i i p 8XV.D.V.N.v.b.b.c.A Z k 5 < 3 9.l u i i 3 o o 3 u i i i i i i i i i i u r r r ",
"+ % = : : : : : : : : = % X . . # - : : : : : : : 6 8Xu...l.m.c.c.A z j 0 > 8.> > : : = + o . . o % = : : : : : : : : ; % + o + ",
". X $ $ & & & & & & & $ X     .   X $ & & & & & $ $ .   8Xq.0.u.` ` 7.D 6.& & & $ = $ $ X       . X $ $ & & & & & & & $ X       "
};
